<svg width="584" height="32" viewBox="0 0 584 32" fill="none" xmlns="http://www.w3.org/2000/svg">
<path d="M30.2855 4.5H27.789C27.439 4.5 27.1069 4.66071 26.8926 4.93571L12.1676 23.5893L5.10688 14.6429C5.00007 14.5072 4.86393 14.3976 4.70867 14.3221C4.55341 14.2467 4.38308 14.2074 4.21045 14.2071H1.71403C1.47474 14.2071 1.3426 14.4821 1.48903 14.6679L11.2712 27.0607C11.7283 27.6393 12.6069 27.6393 13.0676 27.0607L30.5105 4.95714C30.6569 4.775 30.5247 4.5 30.2855 4.5V4.5Z" fill="#119F61"/>
<path d="M46.0114 10.3636H49.0455L52.25 18.1818H52.3864L55.5909 10.3636H58.625V22H56.2386V14.4261H56.142L53.1307 21.9432H51.5057L48.4943 14.3977H48.3977V22H46.0114V10.3636ZM66.2031 18.2841V13.2727H68.6236V22H66.2997V20.4148H66.2088C66.0118 20.9261 65.6842 21.3371 65.2259 21.6477C64.7713 21.9583 64.2164 22.1136 63.5611 22.1136C62.9777 22.1136 62.4645 21.9811 62.0213 21.7159C61.5781 21.4508 61.2315 21.0739 60.9815 20.5852C60.7353 20.0966 60.6103 19.5114 60.6065 18.8295V13.2727H63.027V18.3977C63.0308 18.9129 63.169 19.3201 63.4418 19.6193C63.7145 19.9186 64.08 20.0682 64.5384 20.0682C64.83 20.0682 65.1027 20.0019 65.3565 19.8693C65.6103 19.733 65.8149 19.5322 65.9702 19.267C66.1293 19.0019 66.2069 18.6742 66.2031 18.2841ZM72.9801 10.3636V22H70.5597V10.3636H72.9801ZM79.5611 13.2727V15.0909H74.3054V13.2727H79.5611ZM75.4986 11.1818H77.919V19.3182C77.919 19.5417 77.9531 19.7159 78.0213 19.8409C78.0895 19.9621 78.1842 20.0473 78.3054 20.0966C78.4304 20.1458 78.5743 20.1705 78.7372 20.1705C78.8509 20.1705 78.9645 20.161 79.0781 20.142C79.1918 20.1193 79.2789 20.1023 79.3395 20.0909L79.7202 21.892C79.599 21.9299 79.4285 21.9735 79.2088 22.0227C78.9891 22.0758 78.7221 22.108 78.4077 22.1193C77.8243 22.142 77.313 22.0644 76.8736 21.8864C76.438 21.7083 76.099 21.4318 75.8565 21.0568C75.6141 20.6818 75.4948 20.2083 75.4986 19.6364V11.1818ZM81.1378 22V13.2727H83.5582V22H81.1378ZM82.3537 12.1477C81.9938 12.1477 81.6851 12.0284 81.4276 11.7898C81.1738 11.5473 81.0469 11.2576 81.0469 10.9205C81.0469 10.5871 81.1738 10.3011 81.4276 10.0625C81.6851 9.82008 81.9938 9.69886 82.3537 9.69886C82.7135 9.69886 83.0204 9.82008 83.2741 10.0625C83.5317 10.3011 83.6605 10.5871 83.6605 10.9205C83.6605 11.2576 83.5317 11.5473 83.2741 11.7898C83.0204 12.0284 82.7135 12.1477 82.3537 12.1477ZM85.4972 25.2727V13.2727H87.8835V14.7386H87.9915C88.0975 14.5038 88.2509 14.2652 88.4517 14.0227C88.6563 13.7765 88.9214 13.572 89.2472 13.4091C89.5767 13.2424 89.9858 13.1591 90.4744 13.1591C91.1108 13.1591 91.6979 13.3258 92.2358 13.6591C92.7737 13.9886 93.2036 14.4867 93.5256 15.1534C93.8475 15.8163 94.0085 16.6477 94.0085 17.6477C94.0085 18.6212 93.8513 19.4432 93.5369 20.1136C93.2263 20.7803 92.8021 21.286 92.2642 21.6307C91.7301 21.9716 91.1316 22.142 90.4688 22.142C89.9991 22.142 89.5994 22.0644 89.2699 21.9091C88.9441 21.7538 88.6771 21.5587 88.4688 21.3239C88.2604 21.0852 88.1013 20.8447 87.9915 20.6023H87.9176V25.2727H85.4972ZM87.8665 17.6364C87.8665 18.1553 87.9384 18.608 88.0824 18.9943C88.2263 19.3807 88.4347 19.6818 88.7074 19.8977C88.9801 20.1098 89.3116 20.2159 89.7017 20.2159C90.0956 20.2159 90.429 20.108 90.7017 19.892C90.9744 19.6723 91.1809 19.3693 91.321 18.983C91.465 18.5928 91.5369 18.1439 91.5369 17.6364C91.5369 17.1326 91.4669 16.6894 91.3267 16.3068C91.1866 15.9242 90.9801 15.625 90.7074 15.4091C90.4347 15.1932 90.0994 15.0852 89.7017 15.0852C89.3078 15.0852 88.9744 15.1894 88.7017 15.3977C88.4328 15.6061 88.2263 15.9015 88.0824 16.2841C87.9384 16.6667 87.8665 17.1174 87.8665 17.6364ZM98.0426 10.3636V22H95.6222V10.3636H98.0426ZM103.959 22.1705C103.061 22.1705 102.288 21.9886 101.641 21.625C100.997 21.2576 100.5 20.7386 100.152 20.0682C99.8035 19.3939 99.6293 18.5966 99.6293 17.6761C99.6293 16.7784 99.8035 15.9905 100.152 15.3125C100.5 14.6345 100.991 14.1061 101.624 13.7273C102.26 13.3485 103.006 13.1591 103.862 13.1591C104.438 13.1591 104.974 13.2519 105.47 13.4375C105.97 13.6193 106.406 13.8939 106.777 14.2614C107.152 14.6288 107.444 15.0909 107.652 15.6477C107.86 16.2008 107.964 16.8485 107.964 17.5909V18.2557H100.595V16.7557H105.686C105.686 16.4072 105.61 16.0985 105.459 15.8295C105.307 15.5606 105.097 15.3504 104.828 15.1989C104.563 15.0436 104.254 14.9659 103.902 14.9659C103.535 14.9659 103.209 15.0511 102.925 15.2216C102.644 15.3883 102.425 15.6136 102.266 15.8977C102.107 16.178 102.025 16.4905 102.021 16.8352V18.2614C102.021 18.6932 102.101 19.0663 102.26 19.3807C102.423 19.6951 102.652 19.9375 102.947 20.108C103.243 20.2784 103.593 20.3636 103.999 20.3636C104.268 20.3636 104.514 20.3258 104.737 20.25C104.961 20.1742 105.152 20.0606 105.311 19.9091C105.47 19.7576 105.591 19.572 105.675 19.3523L107.913 19.5C107.8 20.0379 107.567 20.5076 107.214 20.9091C106.866 21.3068 106.415 21.6174 105.862 21.8409C105.313 22.0606 104.679 22.1705 103.959 22.1705ZM117.889 13.2727V15.0909H112.634V13.2727H117.889ZM113.827 11.1818H116.247V19.3182C116.247 19.5417 116.281 19.7159 116.349 19.8409C116.418 19.9621 116.512 20.0473 116.634 20.0966C116.759 20.1458 116.902 20.1705 117.065 20.1705C117.179 20.1705 117.293 20.161 117.406 20.142C117.52 20.1193 117.607 20.1023 117.668 20.0909L118.048 21.892C117.927 21.9299 117.757 21.9735 117.537 22.0227C117.317 22.0758 117.05 22.108 116.736 22.1193C116.152 22.142 115.641 22.0644 115.202 21.8864C114.766 21.7083 114.427 21.4318 114.185 21.0568C113.942 20.6818 113.823 20.2083 113.827 19.6364V11.1818ZM123.349 22.1705C122.452 22.1705 121.679 21.9886 121.031 21.625C120.387 21.2576 119.891 20.7386 119.543 20.0682C119.194 19.3939 119.02 18.5966 119.02 17.6761C119.02 16.7784 119.194 15.9905 119.543 15.3125C119.891 14.6345 120.382 14.1061 121.014 13.7273C121.651 13.3485 122.397 13.1591 123.253 13.1591C123.829 13.1591 124.365 13.2519 124.861 13.4375C125.361 13.6193 125.796 13.8939 126.168 14.2614C126.543 14.6288 126.834 15.0909 127.043 15.6477C127.251 16.2008 127.355 16.8485 127.355 17.5909V18.2557H119.986V16.7557H125.077C125.077 16.4072 125.001 16.0985 124.849 15.8295C124.698 15.5606 124.488 15.3504 124.219 15.1989C123.954 15.0436 123.645 14.9659 123.293 14.9659C122.925 14.9659 122.599 15.0511 122.315 15.2216C122.035 15.3883 121.815 15.6136 121.656 15.8977C121.497 16.178 121.416 16.4905 121.412 16.8352V18.2614C121.412 18.6932 121.491 19.0663 121.651 19.3807C121.813 19.6951 122.043 19.9375 122.338 20.108C122.634 20.2784 122.984 20.3636 123.389 20.3636C123.658 20.3636 123.904 20.3258 124.128 20.25C124.351 20.1742 124.543 20.0606 124.702 19.9091C124.861 19.7576 124.982 19.572 125.065 19.3523L127.304 19.5C127.19 20.0379 126.957 20.5076 126.605 20.9091C126.257 21.3068 125.806 21.6174 125.253 21.8409C124.704 22.0606 124.069 22.1705 123.349 22.1705ZM128.935 22V13.2727H131.241V14.8125H131.344C131.526 14.3011 131.829 13.8977 132.253 13.6023C132.677 13.3068 133.185 13.1591 133.776 13.1591C134.374 13.1591 134.884 13.3087 135.304 13.608C135.724 13.9034 136.005 14.3049 136.145 14.8125H136.236C136.414 14.3125 136.736 13.9129 137.202 13.6136C137.671 13.3106 138.226 13.1591 138.866 13.1591C139.681 13.1591 140.342 13.4186 140.849 13.9375C141.361 14.4527 141.616 15.1837 141.616 16.1307V22H139.202V16.608C139.202 16.1231 139.073 15.7595 138.815 15.517C138.558 15.2746 138.236 15.1534 137.849 15.1534C137.41 15.1534 137.067 15.2936 136.821 15.5739C136.575 15.8504 136.452 16.2159 136.452 16.6705V22H134.105V16.5568C134.105 16.1288 133.982 15.7879 133.736 15.5341C133.493 15.2803 133.173 15.1534 132.776 15.1534C132.507 15.1534 132.264 15.2216 132.048 15.358C131.836 15.4905 131.668 15.678 131.543 15.9205C131.418 16.1591 131.355 16.4394 131.355 16.7614V22H128.935ZM143.528 25.2727V13.2727H145.915V14.7386H146.023C146.129 14.5038 146.282 14.2652 146.483 14.0227C146.688 13.7765 146.953 13.572 147.278 13.4091C147.608 13.2424 148.017 13.1591 148.506 13.1591C149.142 13.1591 149.729 13.3258 150.267 13.6591C150.805 13.9886 151.235 14.4867 151.557 15.1534C151.879 15.8163 152.04 16.6477 152.04 17.6477C152.04 18.6212 151.883 19.4432 151.568 20.1136C151.258 20.7803 150.833 21.286 150.295 21.6307C149.761 21.9716 149.163 22.142 148.5 22.142C148.03 22.142 147.631 22.0644 147.301 21.9091C146.975 21.7538 146.708 21.5587 146.5 21.3239C146.292 21.0852 146.133 20.8447 146.023 20.6023H145.949V25.2727H143.528ZM145.898 17.6364C145.898 18.1553 145.97 18.608 146.114 18.9943C146.258 19.3807 146.466 19.6818 146.739 19.8977C147.011 20.1098 147.343 20.2159 147.733 20.2159C148.127 20.2159 148.46 20.108 148.733 19.892C149.006 19.6723 149.212 19.3693 149.352 18.983C149.496 18.5928 149.568 18.1439 149.568 17.6364C149.568 17.1326 149.498 16.6894 149.358 16.3068C149.218 15.9242 149.011 15.625 148.739 15.4091C148.466 15.1932 148.131 15.0852 147.733 15.0852C147.339 15.0852 147.006 15.1894 146.733 15.3977C146.464 15.6061 146.258 15.9015 146.114 16.2841C145.97 16.6667 145.898 17.1174 145.898 17.6364ZM156.074 10.3636V22H153.653V10.3636H156.074ZM160.501 22.1648C159.945 22.1648 159.448 22.0682 159.013 21.875C158.577 21.678 158.232 21.3883 157.979 21.0057C157.729 20.6193 157.604 20.1383 157.604 19.5625C157.604 19.0777 157.693 18.6705 157.871 18.3409C158.049 18.0114 158.291 17.7462 158.598 17.5455C158.905 17.3447 159.253 17.1932 159.643 17.0909C160.037 16.9886 160.45 16.9167 160.882 16.875C161.39 16.822 161.799 16.7727 162.109 16.7273C162.42 16.678 162.645 16.6061 162.786 16.5114C162.926 16.4167 162.996 16.2765 162.996 16.0909V16.0568C162.996 15.697 162.882 15.4186 162.655 15.2216C162.431 15.0246 162.113 14.9261 161.7 14.9261C161.265 14.9261 160.918 15.0227 160.661 15.2159C160.403 15.4053 160.232 15.6439 160.149 15.9318L157.911 15.75C158.024 15.2197 158.248 14.7614 158.581 14.375C158.914 13.9848 159.344 13.6856 159.871 13.4773C160.401 13.2652 161.015 13.1591 161.712 13.1591C162.196 13.1591 162.661 13.2159 163.104 13.3295C163.551 13.4432 163.946 13.6193 164.291 13.858C164.64 14.0966 164.914 14.4034 165.115 14.7784C165.316 15.1496 165.416 15.5947 165.416 16.1136V22H163.121V20.7898H163.053C162.912 21.0625 162.725 21.303 162.49 21.5114C162.255 21.7159 161.973 21.8769 161.643 21.9943C161.314 22.108 160.933 22.1648 160.501 22.1648ZM161.195 20.4943C161.551 20.4943 161.865 20.4242 162.138 20.2841C162.411 20.1402 162.625 19.947 162.78 19.7045C162.935 19.4621 163.013 19.1875 163.013 18.8807V17.9545C162.937 18.0038 162.833 18.0492 162.7 18.0909C162.571 18.1288 162.426 18.1648 162.263 18.1989C162.1 18.2292 161.937 18.2576 161.774 18.2841C161.611 18.3068 161.464 18.3277 161.331 18.3466C161.047 18.3883 160.799 18.4545 160.587 18.5455C160.375 18.6364 160.21 18.7595 160.092 18.9148C159.975 19.0663 159.916 19.2557 159.916 19.483C159.916 19.8125 160.036 20.0644 160.274 20.2386C160.517 20.4091 160.823 20.4943 161.195 20.4943ZM171.936 13.2727V15.0909H166.68V13.2727H171.936ZM167.874 11.1818H170.294V19.3182C170.294 19.5417 170.328 19.7159 170.396 19.8409C170.464 19.9621 170.559 20.0473 170.68 20.0966C170.805 20.1458 170.949 20.1705 171.112 20.1705C171.226 20.1705 171.339 20.161 171.453 20.142C171.567 20.1193 171.654 20.1023 171.714 20.0909L172.095 21.892C171.974 21.9299 171.804 21.9735 171.584 22.0227C171.364 22.0758 171.097 22.108 170.783 22.1193C170.199 22.142 169.688 22.0644 169.249 21.8864C168.813 21.7083 168.474 21.4318 168.232 21.0568C167.989 20.6818 167.87 20.2083 167.874 19.6364V11.1818ZM177.396 22.1705C176.499 22.1705 175.726 21.9886 175.078 21.625C174.434 21.2576 173.938 20.7386 173.589 20.0682C173.241 19.3939 173.067 18.5966 173.067 17.6761C173.067 16.7784 173.241 15.9905 173.589 15.3125C173.938 14.6345 174.429 14.1061 175.061 13.7273C175.697 13.3485 176.444 13.1591 177.3 13.1591C177.875 13.1591 178.411 13.2519 178.908 13.4375C179.408 13.6193 179.843 13.8939 180.214 14.2614C180.589 14.6288 180.881 15.0909 181.089 15.6477C181.298 16.2008 181.402 16.8485 181.402 17.5909V18.2557H174.033V16.7557H179.124C179.124 16.4072 179.048 16.0985 178.896 15.8295C178.745 15.5606 178.535 15.3504 178.266 15.1989C178 15.0436 177.692 14.9659 177.339 14.9659C176.972 14.9659 176.646 15.0511 176.362 15.2216C176.082 15.3883 175.862 15.6136 175.703 15.8977C175.544 16.178 175.463 16.4905 175.459 16.8352V18.2614C175.459 18.6932 175.538 19.0663 175.697 19.3807C175.86 19.6951 176.089 19.9375 176.385 20.108C176.68 20.2784 177.031 20.3636 177.436 20.3636C177.705 20.3636 177.951 20.3258 178.175 20.25C178.398 20.1742 178.589 20.0606 178.749 19.9091C178.908 19.7576 179.029 19.572 179.112 19.3523L181.351 19.5C181.237 20.0379 181.004 20.5076 180.652 20.9091C180.304 21.3068 179.853 21.6174 179.3 21.8409C178.75 22.0606 178.116 22.1705 177.396 22.1705ZM190.243 15.7614L188.027 15.8977C187.989 15.7083 187.908 15.5379 187.783 15.3864C187.658 15.2311 187.493 15.108 187.288 15.017C187.088 14.9223 186.847 14.875 186.567 14.875C186.192 14.875 185.875 14.9545 185.618 15.1136C185.36 15.2689 185.232 15.4773 185.232 15.7386C185.232 15.947 185.315 16.1231 185.482 16.267C185.648 16.411 185.934 16.5265 186.339 16.6136L187.919 16.9318C188.768 17.1061 189.4 17.3864 189.817 17.7727C190.233 18.1591 190.442 18.6667 190.442 19.2955C190.442 19.8674 190.273 20.3693 189.936 20.8011C189.603 21.233 189.144 21.5701 188.561 21.8125C187.982 22.0511 187.313 22.1705 186.555 22.1705C185.4 22.1705 184.48 21.9299 183.794 21.4489C183.112 20.964 182.713 20.3049 182.595 19.4716L184.976 19.3466C185.048 19.6989 185.222 19.9678 185.499 20.1534C185.775 20.3352 186.129 20.4261 186.561 20.4261C186.985 20.4261 187.326 20.3447 187.584 20.1818C187.845 20.0152 187.978 19.8011 187.982 19.5398C187.978 19.3201 187.885 19.1402 187.703 19C187.521 18.8561 187.241 18.7462 186.862 18.6705L185.351 18.3693C184.499 18.1989 183.864 17.9034 183.447 17.483C183.035 17.0625 182.828 16.5265 182.828 15.875C182.828 15.3144 182.98 14.8314 183.283 14.4261C183.589 14.0208 184.019 13.7083 184.572 13.4886C185.129 13.2689 185.781 13.1591 186.527 13.1591C187.629 13.1591 188.497 13.392 189.129 13.858C189.766 14.3239 190.137 14.9583 190.243 15.7614Z" fill="white"/>
<path d="M272.285 4.5H269.789C269.439 4.5 269.107 4.66071 268.893 4.93571L254.168 23.5893L247.107 14.6429C247 14.5072 246.864 14.3976 246.709 14.3221C246.553 14.2467 246.383 14.2074 246.21 14.2071H243.714C243.475 14.2071 243.343 14.4821 243.489 14.6679L253.271 27.0607C253.728 27.6393 254.607 27.6393 255.068 27.0607L272.51 4.95714C272.657 4.775 272.525 4.5 272.285 4.5V4.5Z" fill="#119F61"/>
<path d="M288.011 10.3636H291.045L294.25 18.1818H294.386L297.591 10.3636H300.625V22H298.239V14.4261H298.142L295.131 21.9432H293.506L290.494 14.3977H290.398V22H288.011V10.3636ZM308.203 18.2841V13.2727H310.624V22H308.3V20.4148H308.209C308.012 20.9261 307.684 21.3371 307.226 21.6477C306.771 21.9583 306.216 22.1136 305.561 22.1136C304.978 22.1136 304.464 21.9811 304.021 21.7159C303.578 21.4508 303.232 21.0739 302.982 20.5852C302.735 20.0966 302.61 19.5114 302.607 18.8295V13.2727H305.027V18.3977C305.031 18.9129 305.169 19.3201 305.442 19.6193C305.714 19.9186 306.08 20.0682 306.538 20.0682C306.83 20.0682 307.103 20.0019 307.357 19.8693C307.61 19.733 307.815 19.5322 307.97 19.267C308.129 19.0019 308.207 18.6742 308.203 18.2841ZM314.98 10.3636V22H312.56V10.3636H314.98ZM321.561 13.2727V15.0909H316.305V13.2727H321.561ZM317.499 11.1818H319.919V19.3182C319.919 19.5417 319.953 19.7159 320.021 19.8409C320.089 19.9621 320.184 20.0473 320.305 20.0966C320.43 20.1458 320.574 20.1705 320.737 20.1705C320.851 20.1705 320.964 20.161 321.078 20.142C321.192 20.1193 321.279 20.1023 321.339 20.0909L321.72 21.892C321.599 21.9299 321.429 21.9735 321.209 22.0227C320.989 22.0758 320.722 22.108 320.408 22.1193C319.824 22.142 319.313 22.0644 318.874 21.8864C318.438 21.7083 318.099 21.4318 317.857 21.0568C317.614 20.6818 317.495 20.2083 317.499 19.6364V11.1818ZM323.138 22V13.2727H325.558V22H323.138ZM324.354 12.1477C323.994 12.1477 323.685 12.0284 323.428 11.7898C323.174 11.5473 323.047 11.2576 323.047 10.9205C323.047 10.5871 323.174 10.3011 323.428 10.0625C323.685 9.82008 323.994 9.69886 324.354 9.69886C324.714 9.69886 325.02 9.82008 325.274 10.0625C325.532 10.3011 325.661 10.5871 325.661 10.9205C325.661 11.2576 325.532 11.5473 325.274 11.7898C325.02 12.0284 324.714 12.1477 324.354 12.1477ZM327.497 25.2727V13.2727H329.884V14.7386H329.991C330.098 14.5038 330.251 14.2652 330.452 14.0227C330.656 13.7765 330.921 13.572 331.247 13.4091C331.577 13.2424 331.986 13.1591 332.474 13.1591C333.111 13.1591 333.698 13.3258 334.236 13.6591C334.774 13.9886 335.204 14.4867 335.526 15.1534C335.848 15.8163 336.009 16.6477 336.009 17.6477C336.009 18.6212 335.851 19.4432 335.537 20.1136C335.226 20.7803 334.802 21.286 334.264 21.6307C333.73 21.9716 333.132 22.142 332.469 22.142C331.999 22.142 331.599 22.0644 331.27 21.9091C330.944 21.7538 330.677 21.5587 330.469 21.3239C330.26 21.0852 330.101 20.8447 329.991 20.6023H329.918V25.2727H327.497ZM329.866 17.6364C329.866 18.1553 329.938 18.608 330.082 18.9943C330.226 19.3807 330.435 19.6818 330.707 19.8977C330.98 20.1098 331.312 20.2159 331.702 20.2159C332.096 20.2159 332.429 20.108 332.702 19.892C332.974 19.6723 333.181 19.3693 333.321 18.983C333.465 18.5928 333.537 18.1439 333.537 17.6364C333.537 17.1326 333.467 16.6894 333.327 16.3068C333.187 15.9242 332.98 15.625 332.707 15.4091C332.435 15.1932 332.099 15.0852 331.702 15.0852C331.308 15.0852 330.974 15.1894 330.702 15.3977C330.433 15.6061 330.226 15.9015 330.082 16.2841C329.938 16.6667 329.866 17.1174 329.866 17.6364ZM340.043 10.3636V22H337.622V10.3636H340.043ZM345.959 22.1705C345.061 22.1705 344.288 21.9886 343.641 21.625C342.997 21.2576 342.5 20.7386 342.152 20.0682C341.804 19.3939 341.629 18.5966 341.629 17.6761C341.629 16.7784 341.804 15.9905 342.152 15.3125C342.5 14.6345 342.991 14.1061 343.624 13.7273C344.26 13.3485 345.006 13.1591 345.862 13.1591C346.438 13.1591 346.974 13.2519 347.47 13.4375C347.97 13.6193 348.406 13.8939 348.777 14.2614C349.152 14.6288 349.444 15.0909 349.652 15.6477C349.86 16.2008 349.964 16.8485 349.964 17.5909V18.2557H342.595V16.7557H347.686C347.686 16.4072 347.61 16.0985 347.459 15.8295C347.307 15.5606 347.097 15.3504 346.828 15.1989C346.563 15.0436 346.254 14.9659 345.902 14.9659C345.535 14.9659 345.209 15.0511 344.925 15.2216C344.644 15.3883 344.425 15.6136 344.266 15.8977C344.107 16.178 344.025 16.4905 344.021 16.8352V18.2614C344.021 18.6932 344.101 19.0663 344.26 19.3807C344.423 19.6951 344.652 19.9375 344.947 20.108C345.243 20.2784 345.593 20.3636 345.999 20.3636C346.268 20.3636 346.514 20.3258 346.737 20.25C346.961 20.1742 347.152 20.0606 347.311 19.9091C347.47 19.7576 347.591 19.572 347.675 19.3523L349.913 19.5C349.8 20.0379 349.567 20.5076 349.214 20.9091C348.866 21.3068 348.415 21.6174 347.862 21.8409C347.313 22.0606 346.679 22.1705 345.959 22.1705ZM357.668 10.3636V22H355.247V10.3636H357.668ZM362.095 22.1648C361.538 22.1648 361.042 22.0682 360.607 21.875C360.171 21.678 359.826 21.3883 359.572 21.0057C359.322 20.6193 359.197 20.1383 359.197 19.5625C359.197 19.0777 359.286 18.6705 359.464 18.3409C359.643 18.0114 359.885 17.7462 360.192 17.5455C360.499 17.3447 360.847 17.1932 361.237 17.0909C361.631 16.9886 362.044 16.9167 362.476 16.875C362.983 16.822 363.393 16.7727 363.703 16.7273C364.014 16.678 364.239 16.6061 364.379 16.5114C364.519 16.4167 364.589 16.2765 364.589 16.0909V16.0568C364.589 15.697 364.476 15.4186 364.249 15.2216C364.025 15.0246 363.707 14.9261 363.294 14.9261C362.858 14.9261 362.512 15.0227 362.254 15.2159C361.997 15.4053 361.826 15.6439 361.743 15.9318L359.504 15.75C359.618 15.2197 359.841 14.7614 360.175 14.375C360.508 13.9848 360.938 13.6856 361.464 13.4773C361.995 13.2652 362.608 13.1591 363.305 13.1591C363.79 13.1591 364.254 13.2159 364.697 13.3295C365.144 13.4432 365.54 13.6193 365.885 13.858C366.233 14.0966 366.508 14.4034 366.709 14.7784C366.91 15.1496 367.01 15.5947 367.01 16.1136V22H364.714V20.7898H364.646C364.506 21.0625 364.319 21.303 364.084 21.5114C363.849 21.7159 363.567 21.8769 363.237 21.9943C362.908 22.108 362.527 22.1648 362.095 22.1648ZM362.788 20.4943C363.144 20.4943 363.459 20.4242 363.732 20.2841C364.004 20.1402 364.218 19.947 364.374 19.7045C364.529 19.4621 364.607 19.1875 364.607 18.8807V17.9545C364.531 18.0038 364.427 18.0492 364.294 18.0909C364.165 18.1288 364.019 18.1648 363.857 18.1989C363.694 18.2292 363.531 18.2576 363.368 18.2841C363.205 18.3068 363.057 18.3277 362.925 18.3466C362.641 18.3883 362.393 18.4545 362.18 18.5455C361.968 18.6364 361.804 18.7595 361.686 18.9148C361.569 19.0663 361.51 19.2557 361.51 19.483C361.51 19.8125 361.629 20.0644 361.868 20.2386C362.11 20.4091 362.417 20.4943 362.788 20.4943ZM371.308 16.9545V22H368.888V13.2727H371.195V14.8125H371.297C371.49 14.3049 371.814 13.9034 372.268 13.608C372.723 13.3087 373.274 13.1591 373.922 13.1591C374.528 13.1591 375.056 13.2917 375.507 13.5568C375.958 13.822 376.308 14.2008 376.558 14.6932C376.808 15.1818 376.933 15.7652 376.933 16.4432V22H374.513V16.875C374.517 16.3409 374.38 15.9242 374.104 15.625C373.827 15.322 373.446 15.1705 372.962 15.1705C372.636 15.1705 372.348 15.2405 372.098 15.3807C371.852 15.5208 371.659 15.7254 371.518 15.9943C371.382 16.2595 371.312 16.5795 371.308 16.9545ZM382.773 25.4545C381.989 25.4545 381.316 25.3466 380.756 25.1307C380.199 24.9186 379.756 24.6288 379.426 24.2614C379.097 23.8939 378.883 23.4811 378.784 23.0227L381.023 22.7216C381.091 22.8958 381.199 23.0587 381.347 23.2102C381.494 23.3617 381.689 23.483 381.932 23.5739C382.178 23.6686 382.477 23.7159 382.83 23.7159C383.356 23.7159 383.79 23.5871 384.131 23.3295C384.475 23.0758 384.648 22.6496 384.648 22.0511V20.4545H384.545C384.439 20.697 384.28 20.9261 384.068 21.142C383.856 21.358 383.583 21.5341 383.25 21.6705C382.917 21.8068 382.519 21.875 382.057 21.875C381.402 21.875 380.805 21.7235 380.267 21.4205C379.733 21.1136 379.307 20.6458 378.989 20.017C378.674 19.3845 378.517 18.5852 378.517 17.6193C378.517 16.6307 378.678 15.8049 379 15.142C379.322 14.4792 379.75 13.983 380.284 13.6534C380.822 13.3239 381.411 13.1591 382.051 13.1591C382.54 13.1591 382.949 13.2424 383.278 13.4091C383.608 13.572 383.873 13.7765 384.074 14.0227C384.278 14.2652 384.436 14.5038 384.545 14.7386H384.636V13.2727H387.04V22.0852C387.04 22.8277 386.858 23.4489 386.494 23.9489C386.131 24.4489 385.627 24.8239 384.983 25.0739C384.343 25.3277 383.606 25.4545 382.773 25.4545ZM382.824 20.0568C383.214 20.0568 383.544 19.9602 383.812 19.767C384.085 19.5701 384.294 19.2898 384.438 18.9261C384.585 18.5587 384.659 18.1193 384.659 17.608C384.659 17.0966 384.587 16.6534 384.443 16.2784C384.299 15.8996 384.091 15.6061 383.818 15.3977C383.545 15.1894 383.214 15.0852 382.824 15.0852C382.426 15.0852 382.091 15.1932 381.818 15.4091C381.545 15.6212 381.339 15.9167 381.199 16.2955C381.059 16.6742 380.989 17.1117 380.989 17.608C380.989 18.1117 381.059 18.5473 381.199 18.9148C381.343 19.2784 381.549 19.5606 381.818 19.7614C382.091 19.9583 382.426 20.0568 382.824 20.0568ZM394.562 18.2841V13.2727H396.983V22H394.659V20.4148H394.568C394.371 20.9261 394.044 21.3371 393.585 21.6477C393.131 21.9583 392.576 22.1136 391.92 22.1136C391.337 22.1136 390.824 21.9811 390.381 21.7159C389.938 21.4508 389.591 21.0739 389.341 20.5852C389.095 20.0966 388.97 19.5114 388.966 18.8295V13.2727H391.386V18.3977C391.39 18.9129 391.528 19.3201 391.801 19.6193C392.074 19.9186 392.439 20.0682 392.898 20.0682C393.189 20.0682 393.462 20.0019 393.716 19.8693C393.97 19.733 394.174 19.5322 394.33 19.267C394.489 19.0019 394.566 18.6742 394.562 18.2841ZM401.408 22.1648C400.851 22.1648 400.355 22.0682 399.919 21.875C399.483 21.678 399.139 21.3883 398.885 21.0057C398.635 20.6193 398.51 20.1383 398.51 19.5625C398.51 19.0777 398.599 18.6705 398.777 18.3409C398.955 18.0114 399.197 17.7462 399.504 17.5455C399.811 17.3447 400.16 17.1932 400.55 17.0909C400.944 16.9886 401.357 16.9167 401.788 16.875C402.296 16.822 402.705 16.7727 403.016 16.7273C403.326 16.678 403.552 16.6061 403.692 16.5114C403.832 16.4167 403.902 16.2765 403.902 16.0909V16.0568C403.902 15.697 403.788 15.4186 403.561 15.2216C403.338 15.0246 403.019 14.9261 402.607 14.9261C402.171 14.9261 401.824 15.0227 401.567 15.2159C401.309 15.4053 401.139 15.6439 401.055 15.9318L398.817 15.75C398.93 15.2197 399.154 14.7614 399.487 14.375C399.821 13.9848 400.25 13.6856 400.777 13.4773C401.307 13.2652 401.921 13.1591 402.618 13.1591C403.103 13.1591 403.567 13.2159 404.01 13.3295C404.457 13.4432 404.853 13.6193 405.197 13.858C405.546 14.0966 405.821 14.4034 406.021 14.7784C406.222 15.1496 406.322 15.5947 406.322 16.1136V22H404.027V20.7898H403.959C403.819 21.0625 403.631 21.303 403.396 21.5114C403.161 21.7159 402.879 21.8769 402.55 21.9943C402.22 22.108 401.839 22.1648 401.408 22.1648ZM402.101 20.4943C402.457 20.4943 402.771 20.4242 403.044 20.2841C403.317 20.1402 403.531 19.947 403.686 19.7045C403.841 19.4621 403.919 19.1875 403.919 18.8807V17.9545C403.843 18.0038 403.739 18.0492 403.607 18.0909C403.478 18.1288 403.332 18.1648 403.169 18.1989C403.006 18.2292 402.843 18.2576 402.68 18.2841C402.518 18.3068 402.37 18.3277 402.237 18.3466C401.953 18.3883 401.705 18.4545 401.493 18.5455C401.281 18.6364 401.116 18.7595 400.999 18.9148C400.881 19.0663 400.822 19.2557 400.822 19.483C400.822 19.8125 400.942 20.0644 401.18 20.2386C401.423 20.4091 401.73 20.4943 402.101 20.4943ZM412.132 25.4545C411.348 25.4545 410.676 25.3466 410.115 25.1307C409.558 24.9186 409.115 24.6288 408.786 24.2614C408.456 23.8939 408.242 23.4811 408.143 23.0227L410.382 22.7216C410.45 22.8958 410.558 23.0587 410.706 23.2102C410.854 23.3617 411.049 23.483 411.291 23.5739C411.537 23.6686 411.837 23.7159 412.189 23.7159C412.715 23.7159 413.149 23.5871 413.49 23.3295C413.835 23.0758 414.007 22.6496 414.007 22.0511V20.4545H413.905C413.799 20.697 413.64 20.9261 413.428 21.142C413.215 21.358 412.943 21.5341 412.609 21.6705C412.276 21.8068 411.878 21.875 411.416 21.875C410.761 21.875 410.164 21.7235 409.626 21.4205C409.092 21.1136 408.666 20.6458 408.348 20.017C408.034 19.3845 407.876 18.5852 407.876 17.6193C407.876 16.6307 408.037 15.8049 408.359 15.142C408.681 14.4792 409.109 13.983 409.643 13.6534C410.181 13.3239 410.77 13.1591 411.411 13.1591C411.899 13.1591 412.308 13.2424 412.638 13.4091C412.967 13.572 413.232 13.7765 413.433 14.0227C413.638 14.2652 413.795 14.5038 413.905 14.7386H413.996V13.2727H416.399V22.0852C416.399 22.8277 416.217 23.4489 415.854 23.9489C415.49 24.4489 414.986 24.8239 414.342 25.0739C413.702 25.3277 412.965 25.4545 412.132 25.4545ZM412.183 20.0568C412.573 20.0568 412.903 19.9602 413.172 19.767C413.445 19.5701 413.653 19.2898 413.797 18.9261C413.945 18.5587 414.018 18.1193 414.018 17.608C414.018 17.0966 413.946 16.6534 413.803 16.2784C413.659 15.8996 413.45 15.6061 413.178 15.3977C412.905 15.1894 412.573 15.0852 412.183 15.0852C411.786 15.0852 411.45 15.1932 411.178 15.4091C410.905 15.6212 410.698 15.9167 410.558 16.2955C410.418 16.6742 410.348 17.1117 410.348 17.608C410.348 18.1117 410.418 18.5473 410.558 18.9148C410.702 19.2784 410.909 19.5606 411.178 19.7614C411.45 19.9583 411.786 20.0568 412.183 20.0568ZM422.303 22.1705C421.405 22.1705 420.632 21.9886 419.984 21.625C419.34 21.2576 418.844 20.7386 418.496 20.0682C418.147 19.3939 417.973 18.5966 417.973 17.6761C417.973 16.7784 418.147 15.9905 418.496 15.3125C418.844 14.6345 419.335 14.1061 419.967 13.7273C420.604 13.3485 421.35 13.1591 422.206 13.1591C422.782 13.1591 423.318 13.2519 423.814 13.4375C424.314 13.6193 424.75 13.8939 425.121 14.2614C425.496 14.6288 425.787 15.0909 425.996 15.6477C426.204 16.2008 426.308 16.8485 426.308 17.5909V18.2557H418.939V16.7557H424.03C424.03 16.4072 423.954 16.0985 423.803 15.8295C423.651 15.5606 423.441 15.3504 423.172 15.1989C422.907 15.0436 422.598 14.9659 422.246 14.9659C421.878 14.9659 421.553 15.0511 421.268 15.2216C420.988 15.3883 420.768 15.6136 420.609 15.8977C420.45 16.178 420.369 16.4905 420.365 16.8352V18.2614C420.365 18.6932 420.445 19.0663 420.604 19.3807C420.767 19.6951 420.996 19.9375 421.291 20.108C421.587 20.2784 421.937 20.3636 422.342 20.3636C422.611 20.3636 422.857 20.3258 423.081 20.25C423.304 20.1742 423.496 20.0606 423.655 19.9091C423.814 19.7576 423.935 19.572 424.018 19.3523L426.257 19.5C426.143 20.0379 425.911 20.5076 425.558 20.9091C425.21 21.3068 424.759 21.6174 424.206 21.8409C423.657 22.0606 423.022 22.1705 422.303 22.1705ZM435.149 15.7614L432.933 15.8977C432.895 15.7083 432.814 15.5379 432.689 15.3864C432.564 15.2311 432.399 15.108 432.195 15.017C431.994 14.9223 431.753 14.875 431.473 14.875C431.098 14.875 430.782 14.9545 430.524 15.1136C430.267 15.2689 430.138 15.4773 430.138 15.7386C430.138 15.947 430.221 16.1231 430.388 16.267C430.554 16.411 430.84 16.5265 431.246 16.6136L432.825 16.9318C433.674 17.1061 434.306 17.3864 434.723 17.7727C435.14 18.1591 435.348 18.6667 435.348 19.2955C435.348 19.8674 435.179 20.3693 434.842 20.8011C434.509 21.233 434.051 21.5701 433.467 21.8125C432.888 22.0511 432.219 22.1705 431.462 22.1705C430.306 22.1705 429.386 21.9299 428.7 21.4489C428.018 20.964 427.619 20.3049 427.501 19.4716L429.882 19.3466C429.954 19.6989 430.128 19.9678 430.405 20.1534C430.681 20.3352 431.036 20.4261 431.467 20.4261C431.892 20.4261 432.232 20.3447 432.49 20.1818C432.751 20.0152 432.884 19.8011 432.888 19.5398C432.884 19.3201 432.791 19.1402 432.609 19C432.428 18.8561 432.147 18.7462 431.768 18.6705L430.257 18.3693C429.405 18.1989 428.77 17.9034 428.354 17.483C427.941 17.0625 427.734 16.5265 427.734 15.875C427.734 15.3144 427.886 14.8314 428.189 14.4261C428.496 14.0208 428.926 13.7083 429.479 13.4886C430.036 13.2689 430.687 13.1591 431.433 13.1591C432.536 13.1591 433.403 13.392 434.036 13.858C434.672 14.3239 435.043 14.9583 435.149 15.7614Z" fill="white"/>
<path d="M491.285 4.5H488.789C488.439 4.5 488.107 4.66071 487.893 4.93571L473.168 23.5893L466.107 14.6429C466 14.5072 465.864 14.3976 465.709 14.3221C465.553 14.2467 465.383 14.2074 465.21 14.2071H462.714C462.475 14.2071 462.343 14.4821 462.489 14.6679L472.271 27.0607C472.728 27.6393 473.607 27.6393 474.068 27.0607L491.51 4.95714C491.657 4.775 491.525 4.5 491.285 4.5V4.5Z" fill="#119F61"/>
<path d="M514.727 14.125C514.648 13.8485 514.536 13.6042 514.392 13.392C514.248 13.1761 514.072 12.9943 513.864 12.8466C513.659 12.6951 513.424 12.5795 513.159 12.5C512.898 12.4205 512.608 12.3807 512.29 12.3807C511.695 12.3807 511.172 12.5284 510.722 12.8239C510.275 13.1193 509.926 13.5492 509.676 14.1136C509.426 14.6742 509.301 15.3598 509.301 16.1705C509.301 16.9811 509.424 17.6705 509.67 18.2386C509.917 18.8068 510.265 19.2405 510.716 19.5398C511.167 19.8352 511.699 19.983 512.312 19.983C512.869 19.983 513.345 19.8845 513.739 19.6875C514.136 19.4867 514.439 19.2045 514.648 18.8409C514.86 18.4773 514.966 18.0473 514.966 17.5511L515.466 17.625H512.466V15.7727H517.335V17.2386C517.335 18.2614 517.119 19.1402 516.688 19.875C516.256 20.6061 515.661 21.1705 514.903 21.5682C514.146 21.9621 513.278 22.1591 512.301 22.1591C511.21 22.1591 510.252 21.9186 509.426 21.4375C508.6 20.9527 507.956 20.2652 507.494 19.375C507.036 18.4811 506.807 17.4205 506.807 16.1932C506.807 15.25 506.943 14.4091 507.216 13.6705C507.492 12.928 507.879 12.2992 508.375 11.7841C508.871 11.2689 509.449 10.8769 510.108 10.608C510.767 10.339 511.481 10.2045 512.25 10.2045C512.909 10.2045 513.523 10.3011 514.091 10.4943C514.659 10.6837 515.163 10.9527 515.602 11.3011C516.045 11.6496 516.407 12.0644 516.688 12.5455C516.968 13.0227 517.148 13.5492 517.227 14.125H514.727ZM523.081 22.1705C522.198 22.1705 521.435 21.983 520.791 21.608C520.151 21.2292 519.657 20.7027 519.308 20.0284C518.96 19.3504 518.786 18.5644 518.786 17.6705C518.786 16.7689 518.96 15.9811 519.308 15.3068C519.657 14.6288 520.151 14.1023 520.791 13.7273C521.435 13.3485 522.198 13.1591 523.081 13.1591C523.964 13.1591 524.725 13.3485 525.365 13.7273C526.009 14.1023 526.505 14.6288 526.854 15.3068C527.202 15.9811 527.376 16.7689 527.376 17.6705C527.376 18.5644 527.202 19.3504 526.854 20.0284C526.505 20.7027 526.009 21.2292 525.365 21.608C524.725 21.983 523.964 22.1705 523.081 22.1705ZM523.092 20.2955C523.494 20.2955 523.829 20.1818 524.098 19.9545C524.367 19.7235 524.57 19.4091 524.706 19.0114C524.846 18.6136 524.916 18.161 524.916 17.6534C524.916 17.1458 524.846 16.6932 524.706 16.2955C524.57 15.8977 524.367 15.5833 524.098 15.3523C523.829 15.1212 523.494 15.0057 523.092 15.0057C522.687 15.0057 522.346 15.1212 522.07 15.3523C521.797 15.5833 521.59 15.8977 521.45 16.2955C521.314 16.6932 521.246 17.1458 521.246 17.6534C521.246 18.161 521.314 18.6136 521.45 19.0114C521.59 19.4091 521.797 19.7235 522.07 19.9545C522.346 20.1818 522.687 20.2955 523.092 20.2955ZM532.893 22.1705C532.011 22.1705 531.248 21.983 530.604 21.608C529.964 21.2292 529.469 20.7027 529.121 20.0284C528.772 19.3504 528.598 18.5644 528.598 17.6705C528.598 16.7689 528.772 15.9811 529.121 15.3068C529.469 14.6288 529.964 14.1023 530.604 13.7273C531.248 13.3485 532.011 13.1591 532.893 13.1591C533.776 13.1591 534.537 13.3485 535.178 13.7273C535.821 14.1023 536.318 14.6288 536.666 15.3068C537.015 15.9811 537.189 16.7689 537.189 17.6705C537.189 18.5644 537.015 19.3504 536.666 20.0284C536.318 20.7027 535.821 21.2292 535.178 21.608C534.537 21.983 533.776 22.1705 532.893 22.1705ZM532.905 20.2955C533.306 20.2955 533.642 20.1818 533.911 19.9545C534.179 19.7235 534.382 19.4091 534.518 19.0114C534.659 18.6136 534.729 18.161 534.729 17.6534C534.729 17.1458 534.659 16.6932 534.518 16.2955C534.382 15.8977 534.179 15.5833 533.911 15.3523C533.642 15.1212 533.306 15.0057 532.905 15.0057C532.5 15.0057 532.159 15.1212 531.882 15.3523C531.609 15.5833 531.403 15.8977 531.263 16.2955C531.126 16.6932 531.058 17.1458 531.058 17.6534C531.058 18.161 531.126 18.6136 531.263 19.0114C531.403 19.4091 531.609 19.7235 531.882 19.9545C532.159 20.1818 532.5 20.2955 532.905 20.2955ZM541.979 22.142C541.316 22.142 540.715 21.9716 540.178 21.6307C539.643 21.286 539.219 20.7803 538.905 20.1136C538.594 19.4432 538.439 18.6212 538.439 17.6477C538.439 16.6477 538.6 15.8163 538.922 15.1534C539.244 14.4867 539.672 13.9886 540.206 13.6591C540.744 13.3258 541.333 13.1591 541.973 13.1591C542.462 13.1591 542.869 13.2424 543.195 13.4091C543.524 13.572 543.789 13.7765 543.99 14.0227C544.195 14.2652 544.35 14.5038 544.456 14.7386H544.53V10.3636H546.945V22H544.558V20.6023H544.456C544.342 20.8447 544.181 21.0852 543.973 21.3239C543.768 21.5587 543.501 21.7538 543.172 21.9091C542.846 22.0644 542.448 22.142 541.979 22.142ZM542.746 20.2159C543.136 20.2159 543.465 20.1098 543.734 19.8977C544.007 19.6818 544.215 19.3807 544.359 18.9943C544.507 18.608 544.581 18.1553 544.581 17.6364C544.581 17.1174 544.509 16.6667 544.365 16.2841C544.221 15.9015 544.013 15.6061 543.74 15.3977C543.467 15.1894 543.136 15.0852 542.746 15.0852C542.348 15.0852 542.013 15.1932 541.74 15.4091C541.467 15.625 541.261 15.9242 541.121 16.3068C540.981 16.6894 540.911 17.1326 540.911 17.6364C540.911 18.1439 540.981 18.5928 541.121 18.983C541.265 19.3693 541.471 19.6723 541.74 19.892C542.013 20.108 542.348 20.2159 542.746 20.2159ZM554.689 22H552.053L556.07 10.3636H559.24L563.251 22H560.615L557.7 13.0227H557.609L554.689 22ZM554.524 17.4261H560.751V19.3466H554.524V17.4261ZM562.787 12.392V10.3636H572.344V12.392H568.781V22H566.349V12.392H562.787ZM580.23 13.7102C580.185 13.2519 579.99 12.8958 579.645 12.642C579.3 12.3883 578.832 12.2614 578.241 12.2614C577.84 12.2614 577.501 12.3182 577.224 12.4318C576.948 12.5417 576.736 12.6951 576.588 12.892C576.444 13.089 576.372 13.3125 576.372 13.5625C576.365 13.7708 576.408 13.9527 576.503 14.108C576.601 14.2633 576.736 14.3977 576.906 14.5114C577.077 14.6212 577.274 14.7178 577.497 14.8011C577.721 14.8807 577.959 14.9489 578.213 15.0057L579.259 15.2557C579.766 15.3693 580.232 15.5208 580.656 15.7102C581.08 15.8996 581.448 16.1326 581.759 16.4091C582.069 16.6856 582.31 17.0114 582.48 17.3864C582.654 17.7614 582.743 18.1913 582.747 18.6761C582.743 19.3883 582.562 20.0057 582.202 20.5284C581.846 21.0473 581.33 21.4508 580.656 21.7386C579.986 22.0227 579.177 22.1648 578.23 22.1648C577.291 22.1648 576.473 22.0208 575.776 21.733C575.082 21.4451 574.541 21.0189 574.151 20.4545C573.764 19.8864 573.562 19.1837 573.543 18.3466H575.923C575.95 18.7367 576.062 19.0625 576.259 19.3239C576.459 19.5814 576.726 19.7765 577.06 19.9091C577.397 20.0379 577.777 20.1023 578.202 20.1023C578.618 20.1023 578.98 20.0417 579.287 19.9205C579.598 19.7992 579.838 19.6307 580.009 19.4148C580.179 19.1989 580.264 18.9508 580.264 18.6705C580.264 18.4091 580.187 18.1894 580.031 18.0114C579.88 17.8333 579.656 17.6818 579.361 17.5568C579.069 17.4318 578.711 17.3182 578.287 17.2159L577.02 16.8977C576.039 16.6591 575.264 16.286 574.696 15.7784C574.128 15.2708 573.846 14.5871 573.849 13.7273C573.846 13.0227 574.033 12.4072 574.412 11.8807C574.795 11.3542 575.319 10.9432 575.986 10.6477C576.652 10.3523 577.41 10.2045 578.259 10.2045C579.122 10.2045 579.876 10.3523 580.52 10.6477C581.168 10.9432 581.671 11.3542 582.031 11.8807C582.391 12.4072 582.577 13.017 582.588 13.7102H580.23Z" fill="white"/>
</svg>
