<svg width="219" height="34" viewBox="0 0 219 34" fill="none" xmlns="http://www.w3.org/2000/svg">
<path d="M65.7372 13.7656H61.3821C61.3026 13.2022 61.1402 12.7017 60.8949 12.2642C60.6496 11.8201 60.3348 11.4422 59.9503 11.1307C59.5658 10.8191 59.1217 10.5805 58.6179 10.4148C58.1207 10.2491 57.5805 10.1662 56.9972 10.1662C55.9432 10.1662 55.0251 10.428 54.2429 10.9517C53.4607 11.4687 52.8542 12.2244 52.4233 13.2188C51.9924 14.2064 51.777 15.4062 51.777 16.8182C51.777 18.2699 51.9924 19.4896 52.4233 20.4773C52.8608 21.465 53.4706 22.2107 54.2528 22.7145C55.035 23.2183 55.9399 23.4702 56.9673 23.4702C57.544 23.4702 58.0777 23.3939 58.5682 23.2415C59.0653 23.089 59.5062 22.867 59.8906 22.5753C60.2751 22.277 60.5933 21.9157 60.8452 21.4915C61.1037 21.0672 61.2827 20.5833 61.3821 20.0398L65.7372 20.0597C65.6245 20.9943 65.3428 21.8958 64.892 22.7642C64.4479 23.6259 63.848 24.3982 63.0923 25.081C62.3433 25.7571 61.4484 26.294 60.4077 26.6918C59.3736 27.0829 58.2036 27.2784 56.8977 27.2784C55.0814 27.2784 53.4574 26.8674 52.0256 26.0455C50.6004 25.2235 49.4735 24.0336 48.6449 22.4759C47.8229 20.9181 47.4119 19.0322 47.4119 16.8182C47.4119 14.5975 47.8295 12.7083 48.6648 11.1506C49.5 9.5928 50.6335 8.40625 52.0653 7.59091C53.4972 6.76894 55.108 6.35795 56.8977 6.35795C58.0777 6.35795 59.1714 6.52367 60.179 6.85511C61.1932 7.18655 62.0914 7.67045 62.8736 8.30682C63.6558 8.93655 64.2921 9.70881 64.7827 10.6236C65.2798 11.5384 65.598 12.5857 65.7372 13.7656ZM87.5376 16.8182C87.5376 19.0388 87.1167 20.928 86.2749 22.4858C85.4396 24.0436 84.2995 25.2334 82.8544 26.0554C81.416 26.8707 79.7985 27.2784 78.0021 27.2784C76.1925 27.2784 74.5684 26.8674 73.13 26.0455C71.6915 25.2235 70.5547 24.0336 69.7195 22.4759C68.8842 20.9181 68.4666 19.0322 68.4666 16.8182C68.4666 14.5975 68.8842 12.7083 69.7195 11.1506C70.5547 9.5928 71.6915 8.40625 73.13 7.59091C74.5684 6.76894 76.1925 6.35795 78.0021 6.35795C79.7985 6.35795 81.416 6.76894 82.8544 7.59091C84.2995 8.40625 85.4396 9.5928 86.2749 11.1506C87.1167 12.7083 87.5376 14.5975 87.5376 16.8182ZM83.1726 16.8182C83.1726 15.3797 82.9572 14.1667 82.5263 13.179C82.102 12.1913 81.5021 11.4422 80.7266 10.9318C79.951 10.4214 79.0429 10.1662 78.0021 10.1662C76.9614 10.1662 76.0533 10.4214 75.2777 10.9318C74.5021 11.4422 73.8989 12.1913 73.468 13.179C73.0438 14.1667 72.8317 15.3797 72.8317 16.8182C72.8317 18.2566 73.0438 19.4697 73.468 20.4574C73.8989 21.4451 74.5021 22.1941 75.2777 22.7045C76.0533 23.215 76.9614 23.4702 78.0021 23.4702C79.0429 23.4702 79.951 23.215 80.7266 22.7045C81.5021 22.1941 82.102 21.4451 82.5263 20.4574C82.9572 19.4697 83.1726 18.2566 83.1726 16.8182ZM91.8381 27.2585C91.1818 27.2585 90.6184 27.0265 90.1477 26.5625C89.6837 26.0919 89.4517 25.5284 89.4517 24.8722C89.4517 24.2225 89.6837 23.6657 90.1477 23.2017C90.6184 22.7377 91.1818 22.5057 91.8381 22.5057C92.4744 22.5057 93.0313 22.7377 93.5085 23.2017C93.9858 23.6657 94.2244 24.2225 94.2244 24.8722C94.2244 25.3097 94.1117 25.7107 93.8864 26.0753C93.6676 26.4332 93.3793 26.7216 93.0213 26.9403C92.6634 27.1525 92.2689 27.2585 91.8381 27.2585ZM103.305 27V6.63636H111.339C112.877 6.63636 114.19 6.91146 115.277 7.46165C116.37 8.00521 117.202 8.77746 117.772 9.77841C118.349 10.7727 118.637 11.9427 118.637 13.2884C118.637 14.6406 118.346 15.804 117.762 16.7784C117.179 17.7462 116.334 18.4886 115.227 19.0057C114.127 19.5227 112.794 19.7812 111.23 19.7812H105.85V16.321H110.534C111.356 16.321 112.038 16.2083 112.582 15.983C113.126 15.7576 113.53 15.4195 113.795 14.9688C114.067 14.518 114.203 13.9579 114.203 13.2884C114.203 12.6122 114.067 12.0421 113.795 11.5781C113.53 11.1141 113.122 10.7628 112.572 10.5241C112.029 10.2789 111.342 10.1562 110.514 10.1562H107.61V27H103.305ZM114.302 17.733L119.363 27H114.61L109.659 17.733H114.302ZM121.68 27V6.63636H135.402V10.1861H125.985V15.0384H134.696V18.5881H125.985V23.4503H135.441V27H121.68ZM149.871 12.4929C149.792 11.6908 149.451 11.0677 148.847 10.6236C148.244 10.1794 147.425 9.95739 146.391 9.95739C145.689 9.95739 145.095 10.0568 144.612 10.2557C144.128 10.4479 143.756 10.7164 143.498 11.0611C143.246 11.4058 143.12 11.7969 143.12 12.2344C143.107 12.599 143.183 12.9171 143.349 13.1889C143.521 13.4607 143.756 13.696 144.055 13.8949C144.353 14.0871 144.698 14.2562 145.089 14.402C145.48 14.5412 145.897 14.6605 146.342 14.7599L148.171 15.1974C149.059 15.3963 149.875 15.6615 150.617 15.9929C151.36 16.3243 152.003 16.732 152.546 17.2159C153.09 17.6998 153.511 18.2699 153.809 18.9261C154.114 19.5824 154.27 20.3348 154.276 21.1832C154.27 22.4295 153.951 23.5099 153.322 24.4247C152.699 25.3329 151.797 26.0388 150.617 26.5426C149.444 27.0398 148.029 27.2884 146.371 27.2884C144.728 27.2884 143.296 27.0365 142.076 26.5327C140.863 26.0289 139.915 25.2831 139.232 24.2955C138.556 23.3011 138.201 22.0715 138.168 20.6065H142.335C142.381 21.2893 142.576 21.8594 142.921 22.3168C143.272 22.7675 143.74 23.1089 144.323 23.3409C144.913 23.5663 145.579 23.679 146.322 23.679C147.051 23.679 147.684 23.5729 148.221 23.3608C148.764 23.1487 149.185 22.8537 149.484 22.4759C149.782 22.098 149.931 21.6638 149.931 21.1733C149.931 20.7159 149.795 20.3314 149.523 20.0199C149.258 19.7083 148.867 19.4432 148.35 19.2244C147.84 19.0057 147.213 18.8068 146.471 18.6278L144.254 18.071C142.537 17.6534 141.181 17.0005 140.187 16.1122C139.192 15.224 138.699 14.0275 138.705 12.5227C138.699 11.2898 139.027 10.2126 139.69 9.29119C140.359 8.36979 141.277 7.65057 142.444 7.13352C143.611 6.61648 144.936 6.35795 146.421 6.35795C147.933 6.35795 149.252 6.61648 150.379 7.13352C151.512 7.65057 152.394 8.36979 153.023 9.29119C153.653 10.2126 153.978 11.2798 153.998 12.4929H149.871ZM169.75 6.63636H174.056V19.8608C174.056 21.3456 173.701 22.6449 172.992 23.7585C172.289 24.8722 171.305 25.7405 170.039 26.3636C168.773 26.9801 167.298 27.2884 165.614 27.2884C163.924 27.2884 162.445 26.9801 161.179 26.3636C159.913 25.7405 158.929 24.8722 158.226 23.7585C157.524 22.6449 157.172 21.3456 157.172 19.8608V6.63636H161.478V19.4929C161.478 20.2685 161.647 20.9579 161.985 21.5611C162.329 22.1643 162.813 22.6383 163.436 22.983C164.06 23.3277 164.785 23.5 165.614 23.5C166.449 23.5 167.175 23.3277 167.792 22.983C168.415 22.6383 168.895 22.1643 169.233 21.5611C169.578 20.9579 169.75 20.2685 169.75 19.4929V6.63636ZM177.598 6.63636H182.908L188.516 20.3182H188.754L194.362 6.63636H199.672V27H195.496V13.7457H195.327L190.057 26.9006H187.213L181.943 13.696H181.774V27H177.598V6.63636ZM203.219 27V6.63636H216.941V10.1861H207.525V15.0384H216.235V18.5881H207.525V23.4503H216.98V27H203.219Z" fill="white"/>
<g clip-path="url(#clip0_140_63)">
<path d="M27.4287 0H8.28585C8.12871 0 8.00014 0.128571 8.00014 0.285714V2.28571C8.00014 2.44286 8.12871 2.57143 8.28585 2.57143H26.0001V27.1429C26.0001 27.3 26.1287 27.4286 26.2859 27.4286H28.2859C28.443 27.4286 28.5716 27.3 28.5716 27.1429V1.14286C28.5716 0.510714 28.0609 0 27.4287 0ZM22.8573 4.57143H4.57157C3.93943 4.57143 3.42871 5.08214 3.42871 5.71429V24.6679C3.42871 24.9714 3.55014 25.2607 3.76443 25.475L9.95371 31.6643C10.0323 31.7429 10.1216 31.8071 10.218 31.8607V31.9286H10.368C10.493 31.975 10.6251 32 10.7609 32H22.8573C23.4894 32 24.0001 31.4893 24.0001 30.8571V5.71429C24.0001 5.08214 23.4894 4.57143 22.8573 4.57143ZM10.2144 28.2929L7.13943 25.2143H10.2144V28.2929ZM21.4287 29.4286H12.5001V24.3571C12.5001 23.5679 11.8609 22.9286 11.0716 22.9286H6.00014V7.14286H21.4287V29.4286Z" fill="white"/>
</g>
<defs>
<clipPath id="clip0_140_63">
<rect width="32" height="32" fill="white"/>
</clipPath>
</defs>
</svg>
