<svg width="30" height="20" viewBox="0 0 30 20" fill="none" xmlns="http://www.w3.org/2000/svg">
<g clip-path="url(#clip0_39_47)">
<path d="M30 0H0V19.8947H30V0Z" fill="#00923F"/>
<path fill-rule="evenodd" clip-rule="evenodd" d="M15 2.41577L2.55005 9.94735L15 17.4789L27.4501 9.94735L15 2.41577Z" fill="#F8C300"/>
<path d="M14.989 14.9108C17.8825 14.9108 20.2282 12.6886 20.2282 9.94734C20.2282 7.2061 17.8825 4.98389 14.989 4.98389C12.0954 4.98389 9.74976 7.2061 9.74976 9.94734C9.74976 12.6886 12.0954 14.9108 14.989 14.9108Z" fill="#28166F"/>
<path fill-rule="evenodd" clip-rule="evenodd" d="M15.5199 11.018L15.5832 11.1695L15.7545 11.1797L15.6225 11.2837L15.6648 11.4415L15.5199 11.3542L15.3747 11.4415L15.4173 11.2837L15.285 11.1797L15.4563 11.1695L15.5199 11.018ZM19.4367 11.5478L19.4907 11.6768L19.6368 11.6856L19.524 11.7743L19.5603 11.9084L19.4367 11.8342L19.3128 11.9084L19.3491 11.7743L19.2366 11.6856L19.3827 11.6768L19.4367 11.5478ZM18.876 11.959L18.9396 12.1102L19.1109 12.1207L18.9786 12.2245L19.0212 12.3822L18.876 12.2952L18.7308 12.3822L18.7734 12.2245L18.6411 12.1207L18.8127 12.1102L18.876 11.959ZM18.6681 11.4267L18.7434 11.606L18.9465 11.6185L18.7899 11.7416L18.8403 11.9283L18.6681 11.8252L18.4962 11.9283L18.5466 11.7416L18.39 11.6185L18.5931 11.606L18.6681 11.4267ZM18.6279 12.3538L18.6912 12.505L18.8628 12.5152L18.7305 12.6192L18.7731 12.777L18.6279 12.6897L18.4827 12.777L18.5253 12.6192L18.393 12.5152L18.5643 12.505L18.6279 12.3538ZM18.1374 12.5982L18.1914 12.727L18.3375 12.736L18.225 12.8244L18.2613 12.9589L18.1374 12.8847L18.0138 12.9589L18.0501 12.8244L17.9373 12.736L18.0834 12.727L18.1374 12.5982ZM17.6331 13.0424L17.6967 13.1936L17.868 13.2041L17.7357 13.3079L17.7783 13.4656L17.6331 13.3784L17.4882 13.4656L17.5305 13.3079L17.3985 13.2041L17.5698 13.1936L17.6331 13.0424ZM17.6271 13.5983L17.6811 13.7274L17.8272 13.7362L17.7147 13.8249L17.751 13.9593L17.6271 13.8851L17.5035 13.9593L17.5398 13.8249L17.427 13.7362L17.5731 13.7274L17.6271 13.5983ZM17.619 12.5934L17.673 12.7221L17.8191 12.7309L17.7063 12.8196L17.7426 12.954L17.619 12.8799L17.4951 12.954L17.5314 12.8196L17.4186 12.7309L17.565 12.7221L17.619 12.5934ZM17.001 12.7085L17.0553 12.8375L17.2014 12.8463L17.0886 12.935L17.1249 13.0694L17.001 12.9952L16.8774 13.0694L16.9137 12.935L16.8009 12.8463L16.947 12.8375L17.001 12.7085ZM16.6047 7.94482L16.68 8.12416L16.8831 8.13638L16.7265 8.25945L16.7769 8.44617L16.6047 8.343L16.4328 8.44617L16.4832 8.25945L16.3266 8.13638L16.5297 8.12416L16.6047 7.94482ZM16.5219 13.1629L16.5852 13.3144L16.7568 13.3246L16.6245 13.4287L16.6671 13.5861L16.5219 13.4992L16.3767 13.5861L16.4193 13.4287L16.287 13.3246L16.4583 13.3144L16.5219 13.1629ZM16.2303 9.45341L16.2846 9.58216L16.4307 9.59126L16.3179 9.67965L16.3542 9.81408L16.2303 9.7399L16.1067 9.81408L16.143 9.67965L16.0302 9.59126L16.1763 9.58216L16.2303 9.45341ZM16.0914 12.5834L16.1454 12.7125L16.2915 12.7213L16.179 12.8097L16.2153 12.9441L16.0914 12.8699L15.9678 12.9441L16.0041 12.8097L15.8913 12.7213L16.0374 12.7125L16.0914 12.5834ZM15.0396 10.5925L15.1029 10.7437L15.2745 10.7542L15.1422 10.858L15.1848 11.0157L15.0396 10.9288L14.8944 11.0157L14.937 10.858L14.8047 10.7542L14.976 10.7437L15.0396 10.5925ZM15.009 12.0005L15.084 12.1798L15.2874 12.1921L15.1305 12.3151L15.1809 12.5021L15.009 12.399L14.8371 12.5021L14.8875 12.3151L14.7306 12.1921L14.934 12.1798L15.009 12.0005ZM15.0261 13.7959L15.0549 13.8646L15.1329 13.8695L15.0729 13.9167L15.0921 13.9886L15.0261 13.9488L14.9601 13.9886L14.9793 13.9167L14.9193 13.8695L14.9973 13.8646L15.0261 13.7959ZM14.6952 11.423L14.7357 11.5196L14.8449 11.5262L14.7606 11.5924L14.7879 11.693L14.6952 11.6373L14.6028 11.693L14.6298 11.5924L14.5455 11.5262L14.655 11.5196L14.6952 11.423ZM14.3124 11.1095L14.3664 11.2385L14.5125 11.2474L14.3997 11.3357L14.436 11.4702L14.3124 11.396L14.1885 11.4702L14.2248 11.3357L14.112 11.2474L14.2584 11.2385L14.3124 11.1095ZM12.9516 9.92435L13.0149 10.0758L13.1862 10.0861L13.0542 10.1901L13.0965 10.3478L12.9516 10.2606L12.8064 10.3478L12.849 10.1901L12.7167 10.0861L12.888 10.0758L12.9516 9.92435ZM12.7983 12.4314L12.8733 12.6107L13.0767 12.6232L12.9198 12.7463L12.9702 12.933L12.7983 12.8298L12.6261 12.933L12.6768 12.7463L12.5199 12.6232L12.723 12.6107L12.7983 12.4314ZM12.2229 11.4418L12.2865 11.593L12.4578 11.6035L12.3255 11.7072L12.3681 11.8649L12.2229 11.7777L12.078 11.8649L12.1203 11.7072L11.9883 11.6035L12.1596 11.593L12.2229 11.4418ZM12.0333 11.9994L12.0873 12.1284L12.2334 12.1372L12.1206 12.2256L12.1569 12.36L12.0333 12.2859L11.9094 12.36L11.9457 12.2256L11.8329 12.1372L11.979 12.1284L12.0333 11.9994ZM11.6424 10.7309L11.6829 10.8273L11.7921 10.8341L11.7078 10.9003L11.7351 11.0007L11.6424 10.9452L11.55 11.0007L11.577 10.9003L11.4927 10.8341L11.6022 10.8273L11.6424 10.7309ZM11.1615 10.931L11.2365 11.1104L11.4399 11.1226L11.283 11.2456L11.3334 11.4327L11.1615 11.3295L10.9896 11.4327L11.04 11.2456L10.8831 11.1226L11.0865 11.1104L11.1615 10.931ZM10.7298 8.86595L10.8051 9.04529L11.0082 9.05751L10.8516 9.18057L10.902 9.36758L10.7298 9.26441L10.5579 9.36758L10.6083 9.18057L10.4517 9.05751L10.6548 9.04529L10.7298 8.86595ZM10.6116 11.4028L10.6752 11.5543L10.8465 11.5645L10.7142 11.6686L10.7568 11.826L10.6116 11.739L10.4664 11.826L10.509 11.6686L10.3767 11.5645L10.5483 11.5543L10.6116 11.4028Z" fill="white"/>
<path fill-rule="evenodd" clip-rule="evenodd" d="M11.8612 8.41402C14.9776 8.41402 17.8345 9.49999 20.0326 11.2922C20.1052 11.0506 20.1589 10.8017 20.1922 10.547C17.9131 8.79572 15.0127 7.74414 11.8612 7.74414C11.3149 7.74414 10.7761 7.77654 10.2466 7.83793C10.1335 8.06672 10.0381 8.3046 9.96216 8.55045C10.5817 8.46064 11.2159 8.41402 11.8612 8.41402Z" fill="white"/>
<path fill-rule="evenodd" clip-rule="evenodd" d="M10.5131 8.15636C10.5173 8.20496 10.5323 8.24162 10.5575 8.26663C10.5827 8.29164 10.6157 8.30244 10.6568 8.29932C10.6979 8.2959 10.7291 8.27999 10.7495 8.251C10.7702 8.22229 10.778 8.18364 10.7738 8.13504C10.7693 8.08644 10.7543 8.04978 10.7291 8.02477C10.7036 7.99976 10.6703 7.98896 10.6289 7.99237C10.5878 7.99549 10.5572 8.01169 10.5368 8.0404C10.5167 8.06882 10.5086 8.10747 10.5131 8.15636ZM10.4153 8.16432C10.4087 8.09298 10.4243 8.03472 10.4615 7.98953C10.4987 7.94434 10.5521 7.91904 10.6217 7.91336C10.6913 7.90767 10.7486 7.92416 10.7936 7.96253C10.8386 8.00118 10.8644 8.05603 10.8707 8.12708C10.8773 8.19842 10.8617 8.25668 10.8242 8.30187C10.787 8.34706 10.7333 8.37264 10.664 8.37833C10.5941 8.38401 10.5371 8.36753 10.4921 8.32887C10.4474 8.29022 10.4216 8.23537 10.4153 8.16432ZM11.1761 8.08189L11.2892 8.0782C11.3138 8.07735 11.3315 8.07223 11.3429 8.06228C11.354 8.05262 11.3591 8.03756 11.3585 8.01738C11.3579 7.99805 11.3516 7.98356 11.3402 7.97418C11.3285 7.96452 11.3117 7.95997 11.2895 7.96082L11.1719 7.96452L11.1761 8.08189ZM11.0888 8.33399L11.0732 7.89119L11.3 7.88408C11.3507 7.88238 11.3888 7.89147 11.414 7.91137C11.4395 7.93126 11.4527 7.96253 11.4542 8.00487C11.4551 8.03187 11.45 8.05461 11.4386 8.07308C11.4275 8.09156 11.4107 8.10435 11.3885 8.11174C11.4089 8.11799 11.4239 8.12794 11.4329 8.14158C11.4419 8.1555 11.4476 8.1771 11.45 8.20666L11.4539 8.25896V8.26066C11.4554 8.28709 11.462 8.30301 11.4737 8.30813L11.474 8.32177L11.3687 8.32518C11.3651 8.31893 11.3624 8.31154 11.3603 8.30244C11.3582 8.29335 11.3564 8.28255 11.3558 8.26976L11.3528 8.22315C11.3507 8.19586 11.3447 8.17739 11.3345 8.16829C11.3243 8.15892 11.3063 8.15465 11.2808 8.1555L11.1788 8.15863L11.1851 8.33086L11.0888 8.33399ZM11.7788 8.23452L11.8559 8.23594C11.9006 8.23679 11.9333 8.22627 11.9537 8.20439C11.9741 8.18279 11.9849 8.14669 11.9858 8.09724C11.9867 8.0475 11.9783 8.01113 11.96 7.98754C11.9417 7.96395 11.9129 7.95173 11.8733 7.95116L11.7845 7.94945L11.7788 8.23452ZM11.6828 8.31267L11.6918 7.86987L11.8748 7.873C11.9468 7.87442 11.9999 7.89375 12.0344 7.93098C12.0689 7.96821 12.0854 8.0242 12.0839 8.09895C12.083 8.1393 12.0758 8.17483 12.0623 8.20553C12.0485 8.23622 12.029 8.26066 12.0041 8.27914C11.9852 8.29278 11.9639 8.30244 11.9399 8.30813C11.9162 8.31381 11.8829 8.31637 11.84 8.31552L11.6828 8.31267ZM12.2762 8.32262L12.3014 7.88039L12.6407 7.89773L12.6362 7.97446L12.3917 7.96196L12.3866 8.05632L12.6098 8.06768L12.6056 8.14328L12.3821 8.13192L12.3758 8.2456L12.6314 8.25867L12.6269 8.34053L12.2762 8.32262ZM12.8267 8.3536L12.8762 7.91307L13.0178 7.92728L13.0724 8.27203L13.2014 7.94604L13.3433 7.96025L13.2938 8.40078L13.2041 8.39168L13.244 8.03642L13.1096 8.3823L13.0118 8.37236L12.9563 8.00743L12.9161 8.36269L12.8267 8.3536ZM14.0657 8.5048L14.1635 8.07166L14.4956 8.13902L14.4785 8.21434L14.2394 8.16574L14.2184 8.2581L14.4374 8.30244L14.4206 8.37662L14.2016 8.332L14.1764 8.44341L14.4269 8.49428L14.4089 8.57443L14.0657 8.5048ZM15.3032 8.53208L15.3932 8.5551C15.4175 8.56107 15.4364 8.56079 15.4502 8.55397C15.464 8.54686 15.4742 8.53265 15.4802 8.51077C15.4862 8.49059 15.485 8.47382 15.4772 8.46046C15.4694 8.44739 15.4547 8.43801 15.4331 8.43261L15.3386 8.40845L15.3032 8.53208ZM15.2807 8.60939L15.2375 8.76144L15.1445 8.73785L15.266 8.31012L15.467 8.36127C15.5144 8.37349 15.5468 8.39453 15.5648 8.4238C15.5825 8.45336 15.5849 8.49087 15.572 8.53606C15.5597 8.58012 15.5381 8.61109 15.5072 8.62872C15.4766 8.64662 15.4388 8.64975 15.3947 8.63866L15.2807 8.60939ZM15.8429 8.67902L15.9509 8.71057C15.9743 8.71739 15.9932 8.71796 16.007 8.71199C16.0211 8.7063 16.031 8.69352 16.0373 8.67419C16.0433 8.656 16.0424 8.64037 16.0349 8.62786C16.0274 8.61507 16.0127 8.60569 15.9917 8.59944L15.8792 8.56676L15.8429 8.67902ZM15.6737 8.89047L15.8108 8.467L16.0277 8.53009C16.0763 8.5443 16.1093 8.56477 16.1264 8.5912C16.1435 8.61792 16.1453 8.65145 16.1321 8.69209C16.1237 8.71796 16.1111 8.73785 16.094 8.75178C16.0769 8.7657 16.0568 8.77281 16.0334 8.77281C16.0505 8.78503 16.0613 8.79896 16.0652 8.81487C16.0688 8.83079 16.0667 8.85296 16.0589 8.88166L16.0445 8.93225C16.0445 8.93254 16.0442 8.9331 16.0439 8.93396C16.0364 8.95925 16.037 8.9763 16.0463 8.98483L16.0421 8.9979L15.9413 8.96835C15.9401 8.96153 15.9398 8.95357 15.941 8.94419C15.9422 8.93509 15.9443 8.92429 15.9479 8.91207L15.9611 8.86717C15.9686 8.84074 15.9692 8.82141 15.9629 8.80976C15.9563 8.79782 15.941 8.78816 15.9164 8.78105L15.8189 8.75263L15.7655 8.91719L15.6737 8.89047ZM16.3856 8.88905C16.3679 8.93481 16.3652 8.97403 16.3769 9.007C16.3883 9.03968 16.4135 9.0627 16.4522 9.07606C16.4912 9.08942 16.5263 9.08743 16.5578 9.06953C16.5893 9.05162 16.6139 9.01979 16.6316 8.97403C16.649 8.92827 16.652 8.88905 16.6403 8.85637C16.6283 8.8234 16.6028 8.80009 16.5638 8.78674C16.5254 8.77338 16.4903 8.77565 16.4591 8.79327C16.4279 8.81118 16.4033 8.84301 16.3856 8.88905ZM16.2935 8.85694C16.3196 8.78986 16.3595 8.74325 16.4132 8.7171C16.4672 8.69124 16.5269 8.68954 16.5926 8.71227C16.658 8.73501 16.7027 8.77281 16.7264 8.82567C16.7501 8.87882 16.7489 8.93879 16.7228 9.00586C16.697 9.07294 16.6571 9.11955 16.6028 9.14541C16.5488 9.17156 16.4888 9.17326 16.4234 9.15053C16.3577 9.12779 16.3133 9.08999 16.2899 9.03713C16.2665 8.98426 16.2677 8.92401 16.2935 8.85694ZM17.1587 9.37733C17.1335 9.39125 17.1086 9.39893 17.0837 9.40035C17.0591 9.40177 17.033 9.39694 17.0057 9.38585C16.9457 9.36141 16.9058 9.32219 16.8863 9.26762C16.8668 9.21277 16.8716 9.15337 16.9004 9.08914C16.9298 9.02405 16.9718 8.97972 17.0264 8.95584C17.081 8.93168 17.1395 8.93225 17.2013 8.95726C17.2553 8.97915 17.2937 9.00899 17.3168 9.04736C17.3399 9.08544 17.345 9.12722 17.3321 9.17269L17.2418 9.13632C17.246 9.11301 17.2421 9.09226 17.2301 9.07436C17.2184 9.05645 17.1989 9.04224 17.1719 9.03116C17.1359 9.01666 17.102 9.0178 17.0702 9.03457C17.0384 9.05105 17.0126 9.08146 16.9928 9.12552C16.9727 9.16985 16.9679 9.20879 16.9781 9.24261C16.9883 9.27643 17.012 9.30087 17.0492 9.31594C17.0774 9.32702 17.1044 9.32873 17.1302 9.32077C17.1563 9.31253 17.1776 9.29576 17.1944 9.27046L17.0969 9.23096L17.1281 9.16133L17.3063 9.23323L17.207 9.45378L17.1479 9.4299L17.1587 9.37733ZM17.6033 9.36567L17.7047 9.41285C17.7269 9.42308 17.7452 9.42621 17.7599 9.42252C17.7746 9.41882 17.7866 9.40802 17.7962 9.38955C17.8049 9.37249 17.8067 9.35715 17.8013 9.3435C17.7959 9.32986 17.783 9.31849 17.7632 9.30912L17.6576 9.26023L17.6033 9.36567ZM17.4011 9.54927L17.6066 9.15166L17.8103 9.24602C17.8562 9.26734 17.8853 9.29235 17.8976 9.32105C17.9102 9.34976 17.9066 9.38329 17.8868 9.42138C17.8742 9.44582 17.8583 9.46344 17.8394 9.47481C17.8202 9.48589 17.7989 9.48987 17.7758 9.48646C17.7908 9.50124 17.7989 9.5163 17.8004 9.53279C17.8013 9.54899 17.7956 9.57059 17.783 9.59759L17.7605 9.64562C17.7605 9.6459 17.7602 9.64647 17.7596 9.64704C17.7479 9.67092 17.7458 9.68797 17.7536 9.69792L17.7473 9.70985L17.6525 9.66608C17.6525 9.65898 17.6537 9.65102 17.6564 9.64221C17.6591 9.63312 17.663 9.62288 17.6687 9.61152L17.6891 9.56917C17.7008 9.54416 17.7044 9.52512 17.7002 9.51233C17.6957 9.49954 17.6819 9.48788 17.6591 9.47737L17.5676 9.43474L17.4875 9.58935L17.4011 9.54927ZM17.9237 9.80364L18.1511 9.41655L18.4478 9.57286L18.4082 9.64022L18.1943 9.52739L18.146 9.61009L18.3416 9.71298L18.3026 9.7792L18.107 9.67632L18.0485 9.77579L18.2726 9.89374L18.2306 9.96536L17.9237 9.80364ZM18.4514 9.94092L18.5327 9.98724C18.5225 10.0097 18.5216 10.0304 18.53 10.0489C18.5384 10.0674 18.5567 10.0847 18.5849 10.1006C18.6089 10.1146 18.6293 10.1208 18.6467 10.1194C18.6641 10.1185 18.6776 10.11 18.6878 10.0941C18.7022 10.0711 18.6794 10.0321 18.6194 9.97729L18.6173 9.9753C18.6158 9.97388 18.6134 9.97161 18.6101 9.96877C18.5774 9.93949 18.5564 9.91562 18.5468 9.89686C18.5378 9.88038 18.5345 9.86247 18.5363 9.84372C18.5381 9.82496 18.5453 9.80592 18.5579 9.78602C18.5813 9.74907 18.6125 9.72861 18.6515 9.72378C18.6905 9.71952 18.7352 9.73145 18.785 9.75987C18.8318 9.78659 18.8618 9.81814 18.8747 9.85395C18.8879 9.89004 18.8828 9.92756 18.8603 9.96649L18.7811 9.9213C18.7913 9.90198 18.7928 9.88379 18.7853 9.86674C18.7781 9.8494 18.7619 9.83348 18.7373 9.81956C18.7157 9.80705 18.6965 9.80165 18.6797 9.80279C18.6629 9.80421 18.65 9.81217 18.6404 9.82695C18.6275 9.84713 18.641 9.87498 18.68 9.91107C18.6905 9.92074 18.6989 9.92841 18.7046 9.93381C18.7295 9.95768 18.7466 9.97502 18.7565 9.98582C18.7661 9.9969 18.7739 10.0071 18.7799 10.0174C18.7907 10.0353 18.7958 10.0535 18.7949 10.0722C18.794 10.0913 18.7874 10.1106 18.7748 10.1302C18.7496 10.1697 18.7163 10.1922 18.6743 10.1978C18.6323 10.2035 18.5858 10.1919 18.5348 10.1626C18.4844 10.1339 18.4517 10.1004 18.4373 10.0617C18.4229 10.0233 18.4274 9.98298 18.4514 9.94092ZM18.944 10.2328L19.0226 10.2834C19.0112 10.3053 19.0094 10.3257 19.0169 10.3448C19.0241 10.3635 19.0415 10.3817 19.0688 10.3991C19.0919 10.4138 19.112 10.4212 19.1294 10.4209C19.1468 10.4207 19.1609 10.413 19.1717 10.3976C19.1876 10.3752 19.1669 10.3354 19.1099 10.2774C19.1093 10.2769 19.1084 10.276 19.1081 10.2754C19.1063 10.274 19.1042 10.2717 19.1012 10.2683C19.0703 10.2376 19.0505 10.2129 19.0418 10.1936C19.034 10.1768 19.0316 10.1586 19.0343 10.1401C19.0373 10.1214 19.0454 10.1026 19.0592 10.0836C19.0847 10.0478 19.1171 10.0287 19.1561 10.0262C19.1954 10.0236 19.2392 10.0378 19.2875 10.0688C19.3328 10.0978 19.3607 10.1305 19.3718 10.1671C19.3829 10.2038 19.376 10.2408 19.3511 10.2786L19.2743 10.2297C19.2857 10.2109 19.2881 10.1927 19.2818 10.1751C19.2755 10.1575 19.2602 10.141 19.2365 10.1257C19.2155 10.1123 19.1966 10.1058 19.1798 10.1063C19.163 10.1069 19.1495 10.1143 19.1393 10.1285C19.1255 10.1478 19.1372 10.1765 19.1741 10.2143C19.1843 10.2246 19.1921 10.2328 19.1975 10.2385C19.2209 10.2632 19.2371 10.2817 19.2464 10.2928C19.2554 10.3041 19.2626 10.3152 19.268 10.3255C19.2779 10.3439 19.2818 10.3624 19.28 10.3812C19.2782 10.3999 19.2704 10.419 19.2566 10.438C19.2296 10.4761 19.1948 10.4971 19.1525 10.5005C19.1102 10.5042 19.0646 10.4903 19.0151 10.4585C18.9665 10.4272 18.9359 10.392 18.9236 10.353C18.911 10.3138 18.9179 10.2737 18.944 10.2328ZM19.5383 10.5315C19.5071 10.5704 19.4921 10.6074 19.4933 10.6418C19.4942 10.6765 19.5113 10.7054 19.544 10.729C19.577 10.7526 19.6115 10.7603 19.6472 10.7521C19.6826 10.7438 19.7159 10.7199 19.7471 10.681C19.778 10.6423 19.793 10.6054 19.7918 10.5707C19.7903 10.5361 19.7732 10.5068 19.7402 10.4832C19.7075 10.4596 19.6733 10.4522 19.6379 10.4607C19.6025 10.469 19.5692 10.4926 19.5383 10.5315ZM19.46 10.4755C19.5056 10.4187 19.5581 10.3851 19.6175 10.3749C19.6772 10.365 19.7348 10.38 19.7906 10.4198C19.8464 10.4599 19.8773 10.5082 19.8836 10.5656C19.8896 10.6227 19.8701 10.6799 19.8248 10.7367C19.7792 10.7938 19.7264 10.8274 19.6667 10.837C19.607 10.847 19.5491 10.8322 19.4936 10.7924C19.4378 10.7523 19.4069 10.7037 19.4009 10.6466C19.3949 10.5898 19.4144 10.5326 19.46 10.4755Z" fill="#00923F"/>
</g>
<defs>
<clipPath id="clip0_39_47">
<rect width="30" height="19.8947" rx="5" fill="white"/>
</clipPath>
</defs>
</svg>
