<svg width="64" height="46" viewBox="0 0 64 46" fill="none" xmlns="http://www.w3.org/2000/svg">
<path d="M0 0.0444336H64V45.9553H0V0.0444336Z" fill="#F0F0F0"/>
<path d="M0 5.78271H64V11.521H0V5.78271ZM0 17.2608H64V22.9991H0V17.2608ZM0 28.7374H64V34.4757H0V28.7374ZM0 40.2155H64V45.9538H0V40.2155Z" fill="#D80027"/>
<path d="M0 0.0444336H32V24.7657H0V0.0444336Z" fill="#2E52B2"/>
<path d="M12.4779 10.1716L11.9625 11.8777H10.2955L11.6444 12.9315L11.129 14.6374L12.4779 13.5836L13.8259 14.6374L13.3106 12.9315L14.6595 11.8777H12.9924L12.4779 10.1716ZM12.9924 18.0341L12.4779 16.3282L11.9625 18.0341H10.2955L11.6444 19.0881L11.129 20.794L12.4779 19.74L13.8259 20.794L13.3106 19.0881L14.6595 18.0341H12.9924ZM5.94724 18.0341L5.43262 16.3282L4.91724 18.0341H3.25024L4.59912 19.0881L4.08374 20.794L5.43262 19.74L6.78074 20.794L6.26549 19.0881L7.61412 18.0341H5.94724ZM5.43262 10.1716L4.91724 11.8777H3.25024L4.59912 12.9315L4.08374 14.6374L5.43262 13.5836L6.78074 14.6374L6.26549 12.9315L7.61412 11.8777H5.94724L5.43262 10.1716ZM12.4779 4.01489L11.9625 5.72106H10.2955L11.6444 6.77503L11.129 8.48093L12.4779 7.42696L13.8259 8.48093L13.3106 6.77503L14.6595 5.72106H12.9924L12.4779 4.01489ZM5.43262 4.01489L4.91724 5.72106H3.25024L4.59912 6.77503L4.08374 8.48093L5.43262 7.42696L6.78074 8.48093L6.26549 6.77503L7.61412 5.72106H5.94724L5.43262 4.01489ZM19.523 10.1716L19.0077 11.8777H17.3407L18.6895 12.9315L18.1744 14.6374L19.523 13.5836L20.8712 14.6374L20.3559 12.9315L21.7047 11.8777H20.0377L19.523 10.1716ZM20.0377 18.0341L19.523 16.3282L19.0077 18.0341H17.3407L18.6895 19.0881L18.1744 20.794L19.523 19.74L20.8712 20.794L20.3559 19.0881L21.7047 18.0341H20.0377ZM27.083 18.0341L26.5684 16.3282L26.053 18.0341H24.3861L25.7347 19.0881L25.2195 20.794L26.5684 19.74L27.9165 20.794L27.4011 19.0881L28.75 18.0341H27.083ZM26.5684 10.1716L26.053 11.8777H24.3861L25.7347 12.9315L25.2195 14.6374L26.5684 13.5836L27.9165 14.6374L27.4011 12.9315L28.75 11.8777H27.083L26.5684 10.1716ZM19.523 4.01489L19.0077 5.72106H17.3407L18.6895 6.77503L18.1744 8.48093L19.523 7.42696L20.8712 8.48093L20.3559 6.77503L21.7047 5.72106H20.0377L19.523 4.01489ZM26.5684 4.01489L26.053 5.72106H24.3861L25.7347 6.77503L25.2195 8.48093L26.5684 7.42696L27.9165 8.48093L27.4011 6.77503L28.75 5.72106H27.083L26.5684 4.01489Z" fill="#F0F0F0"/>
</svg>
