<svg width="20" height="20" viewBox="0 0 20 20" fill="none" xmlns="http://www.w3.org/2000/svg">
<path fill-rule="evenodd" clip-rule="evenodd" d="M9.23757 0.014903C7.18286 0.187021 5.33215 0.922142 3.72444 2.20478C3.29272 2.54922 2.56068 3.28126 2.21394 3.71535C1.07006 5.14734 0.355805 6.7925 0.101751 8.58047C-0.290643 11.3421 0.459592 14.0692 2.21899 16.2769C2.55926 16.7038 3.29289 17.4378 3.71966 17.7782C6.76051 20.2037 10.7817 20.6787 14.3044 19.0285C14.8996 18.7497 15.6909 18.2495 16.2759 17.7824C16.7075 17.4376 17.4402 16.705 17.7813 16.2769C18.9342 14.8303 19.6442 13.1973 19.8986 11.407C20.2905 8.64885 19.5387 5.91226 17.7855 3.71535C17.4408 3.28344 16.7098 2.55179 16.2759 2.20451C14.7453 0.979473 12.9775 0.251756 11.0128 0.0379654C10.6721 0.000895446 9.57496 -0.0133372 9.23757 0.014903ZM10.4368 1.26087L10.6108 1.27653L10.7558 1.59463C10.9292 1.97538 11.1087 2.42047 11.2904 2.92049C11.5211 3.55511 11.9018 4.87287 11.8651 4.90959C11.8246 4.95009 10.8665 4.99289 10.0002 4.99289C9.12993 4.99289 8.17565 4.95006 8.13477 4.90914C8.11681 4.89118 8.11661 4.89206 8.28931 4.25411C8.51744 3.41136 8.90378 2.33523 9.24604 1.5892L9.38948 1.27653L9.55105 1.2621C9.77083 1.24244 10.2248 1.24181 10.4368 1.26087ZM7.77778 1.70431C7.49659 2.3684 7.06967 3.72725 6.88382 4.5497L6.83939 4.74618L6.68833 4.72947C6.43007 4.70088 5.38455 4.49372 4.89957 4.37503C4.4624 4.26804 3.68684 4.05088 3.6407 4.02254C3.5891 3.99085 4.32521 3.31888 4.78281 2.97993C5.50172 2.44744 6.19792 2.07216 7.02482 1.7714C7.26734 1.6832 7.83198 1.51359 7.84411 1.52529C7.84781 1.52884 7.81796 1.60941 7.77778 1.70431ZM12.5311 1.62575C13.8814 2.03259 15.0797 2.7419 16.1202 3.75039C16.2614 3.88731 16.3683 4.00788 16.3577 4.01828C16.3288 4.04655 15.5957 4.25544 15.1257 4.36927C14.4609 4.53034 13.3793 4.7409 13.2168 4.7409C13.166 4.7409 13.1539 4.71088 13.0778 4.39696C12.8699 3.53923 12.5053 2.39138 12.2268 1.71707C12.1371 1.50005 12.1383 1.50711 12.1942 1.52409C12.2182 1.53142 12.3698 1.57717 12.5311 1.62575ZM4.11198 5.491C4.87822 5.68693 5.69826 5.8548 6.31223 5.9414C6.61152 5.98359 6.59664 5.97384 6.57091 6.11101C6.45355 6.73712 6.27643 8.64493 6.27488 9.29961L6.27473 9.36839H3.77154H1.26833L1.28529 9.19955C1.42815 7.77653 1.87783 6.46715 2.62854 5.28829L2.74983 5.09779L3.14337 5.22086C3.35982 5.28854 3.7957 5.41011 4.11198 5.491ZM17.5102 5.51632C18.1846 6.65025 18.5806 7.86075 18.715 9.19955L18.732 9.36839H16.2288H13.7256L13.7255 9.29961C13.7243 8.65646 13.5613 6.87465 13.4396 6.17472C13.4037 5.96834 13.3933 5.98154 13.6131 5.9534C14.4323 5.84842 15.9439 5.50684 16.8509 5.22173L17.2385 5.09992L17.2813 5.15177C17.3049 5.18031 17.4079 5.34435 17.5102 5.51632ZM8.52499 6.19731C9.19501 6.24113 11.019 6.23398 11.6503 6.18508C11.9185 6.16429 12.141 6.15003 12.1447 6.15341C12.1608 6.16774 12.2557 6.79285 12.3119 7.25475C12.3672 7.70857 12.4224 8.38121 12.4634 9.0995L12.4788 9.36839H10H7.52127L7.53707 9.07448C7.58828 8.12332 7.68732 7.1113 7.7886 6.50435C7.85486 6.10731 7.84196 6.13615 7.94604 6.15173C7.9963 6.15926 8.25683 6.17977 8.52499 6.19731ZM6.27488 10.7004C6.27621 11.3578 6.45165 13.2402 6.57091 13.8764C6.59664 14.0136 6.61152 14.0039 6.31223 14.0461C5.41583 14.1725 4.05035 14.483 3.14337 14.7666L2.74983 14.8897L2.62854 14.6992C1.87688 13.5188 1.42833 12.2127 1.28529 10.7879L1.26833 10.6191H3.77154H6.27473L6.27488 10.7004ZM12.4632 10.913C12.4278 11.5706 12.3708 12.2599 12.3126 12.7327C12.2531 13.2171 12.162 13.8181 12.1458 13.8332C12.1414 13.8373 11.9241 13.8233 11.6628 13.8021C11.003 13.7485 9.02534 13.7483 8.34997 13.8016C8.08181 13.8228 7.85934 13.8374 7.85556 13.834C7.83963 13.8198 7.74477 13.1958 7.68814 12.7327C7.63201 12.2738 7.57755 11.6147 7.53675 10.9005L7.52065 10.6191H9.99985H12.479L12.4632 10.913ZM18.7261 10.6638C18.7261 10.7415 18.6566 11.2723 18.614 11.5196C18.4252 12.616 17.9917 13.7257 17.3721 14.6987L17.251 14.8888L16.8572 14.7663C15.9257 14.4764 14.4287 14.1386 13.6131 14.0341C13.3935 14.0059 13.4037 14.0189 13.4393 13.814C13.558 13.1308 13.7243 11.3142 13.7255 10.6879L13.7256 10.6191H16.2259C18.6107 10.6191 18.7261 10.6211 18.7261 10.6638ZM11.2003 15.0227C11.7655 15.0515 11.8754 15.0649 11.8754 15.1052C11.8754 15.156 11.6329 16.0286 11.5115 16.4148C11.3465 16.9396 11.0251 17.79 10.8097 18.2717C10.7085 18.4978 10.6172 18.6912 10.6067 18.7015C10.5739 18.7336 9.99715 18.7558 9.69127 18.7367L9.39839 18.7184L9.33713 18.5975C9.21829 18.3629 8.90385 17.6053 8.75419 17.193C8.49093 16.4679 8.09346 15.1196 8.13169 15.0814C8.15609 15.057 8.70081 15.0191 9.31258 14.9992C9.94552 14.9786 10.4598 14.985 11.2003 15.0227ZM6.88602 15.4404C7.08915 16.3085 7.48907 17.5838 7.7736 18.2709C7.81581 18.3728 7.84743 18.459 7.84388 18.4624C7.84031 18.4658 7.70802 18.4314 7.54987 18.3858C6.54259 18.0956 5.54967 17.5934 4.68705 16.9379C4.27638 16.6258 3.5955 15.9927 3.6407 15.9649C3.68684 15.9366 4.4624 15.7194 4.89957 15.6124C5.15398 15.5502 5.62653 15.4488 5.94969 15.3871C6.91755 15.2025 6.82917 15.1975 6.88602 15.4404ZM13.6428 15.31C14.1551 15.3978 14.5593 15.4815 15.0986 15.6114C15.6011 15.7324 16.3269 15.9386 16.3577 15.969C16.3683 15.9795 16.2614 16.1001 16.1202 16.2371C15.2208 17.1088 14.2275 17.7425 13.0796 18.1768C12.8128 18.2777 12.1719 18.4781 12.1586 18.4648C12.1544 18.4606 12.1943 18.3511 12.2471 18.2214C12.5231 17.5443 12.8859 16.3965 13.0787 15.5905C13.1539 15.2761 13.1658 15.2466 13.2167 15.2466C13.2474 15.2466 13.4391 15.2751 13.6428 15.31Z" fill="white"/>
</svg>
