<svg width="32" height="32" viewBox="0 0 32 32" fill="none" xmlns="http://www.w3.org/2000/svg">
<g clip-path="url(#clip0_40_89)">
<path d="M27.4285 0H8.28561C8.12847 0 7.9999 0.128571 7.9999 0.285714V2.28571C7.9999 2.44286 8.12847 2.57143 8.28561 2.57143H25.9999V27.1429C25.9999 27.3 26.1285 27.4286 26.2856 27.4286H28.2856C28.4428 27.4286 28.5713 27.3 28.5713 27.1429V1.14286C28.5713 0.510714 28.0606 0 27.4285 0ZM22.857 4.57143H4.57132C3.93918 4.57143 3.42847 5.08214 3.42847 5.71429V24.6679C3.42847 24.9714 3.5499 25.2607 3.76418 25.475L9.95347 31.6643C10.032 31.7429 10.1213 31.8071 10.2178 31.8607V31.9286H10.3678C10.4928 31.975 10.6249 32 10.7606 32H22.857C23.4892 32 23.9999 31.4893 23.9999 30.8571V5.71429C23.9999 5.08214 23.4892 4.57143 22.857 4.57143ZM10.2142 28.2929L7.13918 25.2143H10.2142V28.2929ZM21.4285 29.4286H12.4999V24.3571C12.4999 23.5679 11.8606 22.9286 11.0713 22.9286H5.9999V7.14286H21.4285V29.4286Z" fill="white"/>
</g>
<defs>
<clipPath id="clip0_40_89">
<rect width="32" height="32" fill="white"/>
</clipPath>
</defs>
</svg>
