<svg width="203" height="32" viewBox="0 0 203 32" fill="none" xmlns="http://www.w3.org/2000/svg">
<g clip-path="url(#clip0_204_423)">
<path d="M27.4286 0H8.28573C8.12859 0 8.00002 0.128571 8.00002 0.285714V2.28571C8.00002 2.44286 8.12859 2.57143 8.28573 2.57143H26V27.1429C26 27.3 26.1286 27.4286 26.2857 27.4286H28.2857C28.4429 27.4286 28.5714 27.3 28.5714 27.1429V1.14286C28.5714 0.510714 28.0607 0 27.4286 0ZM22.8572 4.57143H4.57145C3.9393 4.57143 3.42859 5.08214 3.42859 5.71429V24.6679C3.42859 24.9714 3.55002 25.2607 3.7643 25.475L9.95359 31.6643C10.0322 31.7429 10.1214 31.8071 10.2179 31.8607V31.9286H10.3679C10.4929 31.975 10.625 32 10.7607 32H22.8572C23.4893 32 24 31.4893 24 30.8571V5.71429C24 5.08214 23.4893 4.57143 22.8572 4.57143ZM10.2143 28.2929L7.1393 25.2143H10.2143V28.2929ZM21.4286 29.4286H12.5V24.3571C12.5 23.5679 11.8607 22.9286 11.0714 22.9286H6.00002V7.14286H21.4286V29.4286Z" fill="#1A1F2F"/>
</g>
<path d="M54.752 26.42C53.3893 26.42 52.148 26.196 51.028 25.748C49.908 25.3 48.9467 24.6467 48.144 23.788C47.3413 22.9293 46.716 21.8747 46.268 20.624C45.8387 19.3547 45.624 17.908 45.624 16.284C45.624 14.66 45.8667 13.2227 46.352 11.972C46.856 10.7027 47.528 9.63867 48.368 8.78C49.208 7.92133 50.188 7.268 51.308 6.82C52.428 6.372 53.6227 6.148 54.892 6.148C55.6947 6.148 56.4133 6.204 57.048 6.316C57.7013 6.428 58.2613 6.55867 58.728 6.708C59.2133 6.85733 59.6053 7.00667 59.904 7.156C60.2027 7.30533 60.408 7.41733 60.52 7.492L59.736 9.732C59.568 9.62 59.3253 9.49867 59.008 9.368C58.6907 9.23733 58.3267 9.10667 57.916 8.976C57.524 8.84533 57.0853 8.74267 56.6 8.668C56.1333 8.57467 55.6573 8.528 55.172 8.528C54.1453 8.528 53.2213 8.70533 52.4 9.06C51.5787 9.41467 50.8787 9.928 50.3 10.6C49.7213 11.272 49.2733 12.0933 48.956 13.064C48.6573 14.016 48.508 15.0893 48.508 16.284C48.508 17.4413 48.6387 18.496 48.9 19.448C49.18 20.4 49.5907 21.2213 50.132 21.912C50.6733 22.584 51.3453 23.1067 52.148 23.48C52.9693 23.8533 53.9213 24.04 55.004 24.04C56.2547 24.04 57.2907 23.9093 58.112 23.648C58.9333 23.3867 59.5493 23.1533 59.96 22.948L60.66 25.188C60.5293 25.2813 60.296 25.4027 59.96 25.552C59.624 25.6827 59.204 25.8133 58.7 25.944C58.196 26.0747 57.608 26.1867 56.936 26.28C56.264 26.3733 55.536 26.42 54.752 26.42ZM62.4404 16.284C62.4404 14.6227 62.6831 13.1573 63.1684 11.888C63.6724 10.6187 64.3444 9.564 65.1844 8.724C66.0431 7.86533 67.0324 7.22133 68.1524 6.792C69.2911 6.36267 70.4951 6.148 71.7644 6.148C73.0151 6.148 74.1911 6.36267 75.2924 6.792C76.4124 7.22133 77.3924 7.86533 78.2324 8.724C79.0724 9.564 79.7351 10.6187 80.2204 11.888C80.7244 13.1573 80.9764 14.6227 80.9764 16.284C80.9764 17.9453 80.7244 19.4107 80.2204 20.68C79.7351 21.9493 79.0724 23.0133 78.2324 23.872C77.3924 24.712 76.4124 25.3467 75.2924 25.776C74.1911 26.2053 73.0151 26.42 71.7644 26.42C70.4951 26.42 69.2911 26.2053 68.1524 25.776C67.0324 25.3467 66.0431 24.712 65.1844 23.872C64.3444 23.0133 63.6724 21.9493 63.1684 20.68C62.6831 19.4107 62.4404 17.9453 62.4404 16.284ZM65.2964 16.284C65.2964 17.46 65.4457 18.5333 65.7444 19.504C66.0431 20.456 66.4631 21.268 67.0044 21.94C67.5644 22.612 68.2364 23.1347 69.0204 23.508C69.8231 23.8627 70.7191 24.04 71.7084 24.04C72.6977 24.04 73.5844 23.8627 74.3684 23.508C75.1524 23.1347 75.8151 22.612 76.3564 21.94C76.9164 21.268 77.3457 20.456 77.6444 19.504C77.9431 18.5333 78.0924 17.46 78.0924 16.284C78.0924 15.108 77.9431 14.044 77.6444 13.092C77.3457 12.1213 76.9164 11.3 76.3564 10.628C75.8151 9.956 75.1524 9.44267 74.3684 9.088C73.5844 8.71467 72.6977 8.528 71.7084 8.528C70.7191 8.528 69.8231 8.71467 69.0204 9.088C68.2364 9.44267 67.5644 9.956 67.0044 10.628C66.4631 11.3 66.0431 12.1213 65.7444 13.092C65.4457 14.044 65.2964 15.108 65.2964 16.284ZM86.9997 24.488C86.9997 24.992 86.8317 25.4307 86.4957 25.804C86.1597 26.1773 85.7024 26.364 85.1237 26.364C84.545 26.364 84.0877 26.1773 83.7517 25.804C83.4157 25.4307 83.2477 24.992 83.2477 24.488C83.2477 23.984 83.4157 23.5453 83.7517 23.172C84.0877 22.7987 84.545 22.612 85.1237 22.612C85.7024 22.612 86.1597 22.7987 86.4957 23.172C86.8317 23.5453 86.9997 23.984 86.9997 24.488ZM96.4943 6.372C99.4063 6.372 101.637 6.89467 103.186 7.94C104.736 8.96667 105.51 10.572 105.51 12.756C105.51 14.1187 105.193 15.2293 104.558 16.088C103.942 16.928 103.046 17.5907 101.87 18.076C102.262 18.5613 102.673 19.1213 103.102 19.756C103.532 20.372 103.952 21.0253 104.362 21.716C104.792 22.388 105.202 23.0973 105.594 23.844C105.986 24.572 106.35 25.2907 106.686 26H101.786C101.432 25.3653 101.068 24.7213 100.694 24.068C100.34 23.4147 99.9663 22.78 99.5743 22.164C99.201 21.548 98.8276 20.9693 98.4543 20.428C98.081 19.868 97.7076 19.364 97.3343 18.916H95.1783V26H90.8103V6.876C91.7623 6.68933 92.7423 6.55867 93.7503 6.484C94.777 6.40933 95.6916 6.372 96.4943 6.372ZM96.7463 10.096C96.429 10.096 96.1396 10.1053 95.8783 10.124C95.6356 10.1427 95.4023 10.1613 95.1783 10.18V15.444H96.4103C98.053 15.444 99.229 15.2387 99.9383 14.828C100.648 14.4173 101.002 13.7173 101.002 12.728C101.002 11.776 100.638 11.104 99.9103 10.712C99.201 10.3013 98.1463 10.096 96.7463 10.096ZM109.486 26V6.596H122.59V10.264H113.854V14.072H121.61V17.656H113.854V22.332H123.234V26H109.486ZM131.759 22.668C132.375 22.668 132.879 22.6213 133.271 22.528C133.681 22.416 134.008 22.276 134.251 22.108C134.493 21.9213 134.661 21.7067 134.755 21.464C134.848 21.2213 134.895 20.9507 134.895 20.652C134.895 20.0173 134.596 19.4947 133.999 19.084C133.401 18.6547 132.375 18.1973 130.919 17.712C130.284 17.488 129.649 17.236 129.015 16.956C128.38 16.6573 127.811 16.2933 127.307 15.864C126.803 15.416 126.392 14.884 126.075 14.268C125.757 13.6333 125.599 12.868 125.599 11.972C125.599 11.076 125.767 10.2733 126.103 9.564C126.439 8.836 126.915 8.22 127.531 7.716C128.147 7.212 128.893 6.82933 129.771 6.568C130.648 6.288 131.637 6.148 132.739 6.148C134.045 6.148 135.175 6.288 136.127 6.568C137.079 6.848 137.863 7.156 138.479 7.492L137.219 10.936C136.677 10.656 136.071 10.4133 135.399 10.208C134.745 9.984 133.952 9.872 133.019 9.872C131.973 9.872 131.217 10.0213 130.751 10.32C130.303 10.6 130.079 11.0387 130.079 11.636C130.079 11.9907 130.163 12.2893 130.331 12.532C130.499 12.7747 130.732 12.9987 131.031 13.204C131.348 13.3907 131.703 13.568 132.095 13.736C132.505 13.8853 132.953 14.044 133.439 14.212C134.447 14.5853 135.324 14.9587 136.071 15.332C136.817 15.6867 137.433 16.1067 137.919 16.592C138.423 17.0773 138.796 17.6467 139.039 18.3C139.281 18.9533 139.403 19.7467 139.403 20.68C139.403 22.4907 138.768 23.9 137.499 24.908C136.229 25.8973 134.316 26.392 131.759 26.392C130.9 26.392 130.125 26.336 129.435 26.224C128.744 26.1307 128.128 26.0093 127.587 25.86C127.064 25.7107 126.607 25.552 126.215 25.384C125.841 25.216 125.524 25.0573 125.263 24.908L126.495 21.436C127.073 21.7533 127.783 22.0427 128.623 22.304C129.481 22.5467 130.527 22.668 131.759 22.668ZM150.351 26.392C148.989 26.392 147.813 26.2053 146.823 25.832C145.834 25.44 145.013 24.908 144.359 24.236C143.725 23.5453 143.249 22.7333 142.931 21.8C142.633 20.848 142.483 19.8027 142.483 18.664V6.596H146.851V18.3C146.851 19.084 146.935 19.756 147.103 20.316C147.29 20.8573 147.533 21.3053 147.831 21.66C148.149 21.996 148.522 22.2387 148.951 22.388C149.399 22.5373 149.885 22.612 150.407 22.612C151.471 22.612 152.33 22.2853 152.983 21.632C153.655 20.9787 153.991 19.868 153.991 18.3V6.596H158.359V18.664C158.359 19.8027 158.201 20.848 157.883 21.8C157.566 22.752 157.081 23.5733 156.427 24.264C155.774 24.936 154.943 25.4587 153.935 25.832C152.927 26.2053 151.733 26.392 150.351 26.392ZM167.712 6.596C168.048 7.212 168.431 7.97733 168.86 8.892C169.308 9.788 169.766 10.768 170.232 11.832C170.718 12.8773 171.194 13.9507 171.66 15.052C172.127 16.1533 172.566 17.1893 172.976 18.16C173.387 17.1893 173.826 16.1533 174.292 15.052C174.759 13.9507 175.226 12.8773 175.692 11.832C176.178 10.768 176.635 9.788 177.064 8.892C177.512 7.97733 177.904 7.212 178.24 6.596H182.216C182.403 7.884 182.571 9.33067 182.72 10.936C182.888 12.5227 183.028 14.184 183.14 15.92C183.271 17.6373 183.383 19.364 183.476 21.1C183.588 22.836 183.682 24.4693 183.756 26H179.5C179.444 24.1147 179.37 22.0613 179.276 19.84C179.183 17.6187 179.043 15.3787 178.856 13.12C178.52 13.904 178.147 14.772 177.736 15.724C177.326 16.676 176.915 17.628 176.504 18.58C176.112 19.532 175.73 20.4467 175.356 21.324C174.983 22.1827 174.666 22.92 174.404 23.536H171.352C171.091 22.92 170.774 22.1827 170.4 21.324C170.027 20.4467 169.635 19.532 169.224 18.58C168.832 17.628 168.431 16.676 168.02 15.724C167.61 14.772 167.236 13.904 166.9 13.12C166.714 15.3787 166.574 17.6187 166.48 19.84C166.387 22.0613 166.312 24.1147 166.256 26H162C162.075 24.4693 162.159 22.836 162.252 21.1C162.364 19.364 162.476 17.6373 162.588 15.92C162.719 14.184 162.859 12.5227 163.008 10.936C163.176 9.33067 163.354 7.884 163.54 6.596H167.712ZM187.689 26V6.596H200.793V10.264H192.057V14.072H199.813V17.656H192.057V22.332H201.437V26H187.689Z" fill="#1A1F2F"/>
<defs>
<clipPath id="clip0_204_423">
<rect width="32" height="32" fill="white"/>
</clipPath>
</defs>
</svg>
